<svg width="290" height="186" viewBox="0 0 290 186" fill="none" xmlns="http://www.w3.org/2000/svg">
<g clip-path="url(#clip0_8370_2244)">
<rect width="290" height="186" fill="#CB0F41"/>
<g opacity="0.4">
<path d="M211.027 107.137L311.363 107.137L311.363 105.943L211.027 105.943L211.027 107.137Z" fill="#A30C33"/>
<path d="M316.139 111.914L317.334 111.914L317.334 119.081C317.334 119.26 317.274 119.38 317.155 119.499L280.604 155.931C280.484 156.05 280.365 156.11 280.186 156.11L246.86 156.11L246.86 154.915L279.947 154.915L316.139 118.842L316.139 111.914Z" fill="#A30C33"/>
<path d="M229.54 51.5933L274.333 51.5933C274.512 51.5933 274.631 51.653 274.751 51.7725L317.155 94.1763C317.274 94.2958 317.334 94.4152 317.334 94.5944L317.334 100.567L316.139 100.567L316.139 94.8333L274.094 52.7878L229.54 52.7878L229.54 51.5933Z" fill="#A30C33"/>
<path d="M259.404 89.8165L283.413 89.8165C283.592 89.8165 283.711 89.8762 283.831 89.9957L299.956 106.002L299.12 106.838L283.174 91.011L259.404 91.011L259.404 89.8165Z" fill="#A30C33"/>
<path d="M276.005 106.062L276.842 106.898L260.776 123.083C260.656 123.203 260.537 123.262 260.358 123.262L236.11 123.262L236.11 122.068L260.119 122.068L276.005 106.062Z" fill="#A30C33"/>
<path d="M184.75 136.401L279.592 136.401C279.771 136.401 279.89 136.461 280.01 136.58L289.506 146.196L288.67 147.032L279.353 137.596L184.75 137.596L184.75 136.401Z" fill="#A30C33"/>
<path d="M269.318 155.095L270.154 155.931L254.626 171.46C254.507 171.579 254.387 171.639 254.208 171.639L204.458 171.639L204.458 170.444L253.969 170.444L269.318 155.095Z" fill="#A30C33"/>
<path d="M259.642 22.328L283.71 46.3967C283.83 46.5161 283.89 46.6356 283.89 46.8147L283.89 61.1484L282.695 61.1484L282.695 47.0536L258.806 23.1642L259.642 22.328Z" fill="#A30C33"/>
<path d="M265.078 51.953L265.914 52.7891L250.087 68.7354C249.968 68.8548 249.848 68.9146 249.669 68.9146L189.527 68.9146L189.527 67.7201L249.371 67.7201L265.078 51.953Z" fill="#A30C33"/>
<path d="M209.236 34.87L235.992 34.87C236.171 34.87 236.29 34.9297 236.41 35.0492L253.252 51.8913L252.416 52.7274L235.753 36.0645L209.236 36.0645L209.236 34.87Z" fill="#A30C33"/>
<path d="M204.456 168.294C202.939 168.294 201.709 169.524 201.709 171.041C201.709 172.558 202.939 173.788 204.456 173.788C205.973 173.788 207.203 172.558 207.203 171.041C207.203 169.524 205.973 168.294 204.456 168.294Z" fill="#A30C33"/>
<path d="M241.485 149.182C244.949 149.182 247.816 151.989 247.816 155.513C247.816 159.037 245.009 161.844 241.485 161.844C237.961 161.844 235.154 159.037 235.154 155.513C235.154 151.989 238.021 149.182 241.485 149.182ZM241.485 160.649C244.292 160.649 246.621 158.32 246.621 155.513C246.621 152.706 244.292 150.377 241.485 150.377C238.678 150.377 236.349 152.706 236.349 155.513C236.349 158.32 238.678 160.649 241.485 160.649Z" fill="#A30C33"/>
<path d="M241.487 152.767C239.97 152.767 238.74 153.997 238.74 155.514C238.74 157.031 239.97 158.261 241.487 158.261C243.004 158.261 244.234 157.031 244.234 155.514C244.234 153.997 243.004 152.767 241.487 152.767Z" fill="#A30C33"/>
<path d="M182.002 136.879C182.002 135.386 183.256 134.132 184.749 134.132C186.242 134.132 187.496 135.386 187.496 136.879C187.496 138.372 186.242 139.626 184.749 139.626C183.256 139.626 182.002 138.432 182.002 136.879Z" fill="#A30C33"/>
<path d="M236.112 119.918C234.595 119.918 233.365 121.148 233.365 122.665C233.365 124.182 234.595 125.412 236.112 125.412C237.629 125.412 238.859 124.182 238.859 122.665C238.859 121.148 237.629 119.918 236.112 119.918Z" fill="#A30C33"/>
<path d="M205.652 100.208C209.116 100.208 211.982 103.015 211.982 106.539C211.982 110.063 209.175 112.87 205.652 112.87C202.128 112.87 199.321 110.063 199.321 106.539C199.321 103.015 202.188 100.208 205.652 100.208ZM205.652 111.675C208.459 111.675 210.788 109.346 210.788 106.539C210.788 103.732 208.459 101.403 205.652 101.403C202.845 101.403 200.515 103.732 200.515 106.539C200.515 109.346 202.845 111.675 205.652 111.675Z" fill="#A30C33"/>
<path d="M205.655 103.793C204.138 103.793 202.908 105.023 202.908 106.54C202.908 108.057 204.138 109.287 205.655 109.287C207.172 109.287 208.402 108.057 208.402 106.54C208.402 105.023 207.172 103.793 205.655 103.793Z" fill="#A30C33"/>
<path d="M259.406 87.6663C257.889 87.6663 256.659 88.8963 256.659 90.4136C256.659 91.9309 257.889 93.1609 259.406 93.1609C260.923 93.1609 262.153 91.9309 262.153 90.4136C262.153 88.8963 260.923 87.6663 259.406 87.6663Z" fill="#A30C33"/>
<path d="M189.525 65.5683C188.008 65.5683 186.778 66.7983 186.778 68.3156C186.778 69.8329 188.008 71.0629 189.525 71.0629C191.042 71.0629 192.272 69.8329 192.272 68.3156C192.272 66.7983 191.042 65.5683 189.525 65.5683Z" fill="#A30C33"/>
<path d="M224.166 45.9786C227.63 45.9786 230.497 48.7856 230.497 52.3093C230.497 55.833 227.69 58.64 224.166 58.64C220.642 58.64 217.835 55.833 217.835 52.3093C217.835 48.7856 220.702 45.9786 224.166 45.9786ZM224.166 57.4455C226.973 57.4455 229.302 55.1163 229.302 52.3093C229.302 49.5023 226.973 47.1731 224.166 47.1731C221.359 47.1731 219.03 49.5023 219.03 52.3093C219.03 55.1163 221.359 57.4455 224.166 57.4455Z" fill="#A30C33"/>
<path d="M221.419 52.3101C221.419 50.817 222.674 49.5628 224.167 49.5628C225.66 49.5628 226.914 50.817 226.914 52.3101C226.914 53.8032 225.66 55.0574 224.167 55.0574C222.674 55.0574 221.419 53.8032 221.419 52.3101Z" fill="#A30C33"/>
<path d="M209.235 32.7207C207.718 32.7207 206.488 33.9508 206.488 35.468C206.488 36.9853 207.718 38.2153 209.235 38.2153C210.752 38.2153 211.982 36.9853 211.982 35.468C211.982 33.9508 210.752 32.7207 209.235 32.7207Z" fill="#A30C33"/>
<path d="M256.474 22.7474C256.474 21.2543 257.728 20.0001 259.221 20.0001C260.715 20.0001 261.969 21.2543 261.969 22.7474C261.969 24.2404 260.715 25.4946 259.221 25.4946C257.669 25.4349 256.474 24.2404 256.474 22.7474Z" fill="#A30C33"/>
<g opacity="0.4">
<path d="M256.474 107.085L312.554 107.085L312.554 105.995L256.474 105.995L256.474 107.085Z" fill="black"/>
<path d="M316.139 111.914L317.334 111.914L317.334 119.081C317.334 119.26 317.274 119.38 317.155 119.499L280.604 155.931C280.484 156.05 280.365 156.11 280.186 156.11L246.86 156.11L246.86 154.915L279.947 154.915L316.139 118.842L316.139 111.914Z" fill="black"/>
<path d="M229.54 51.5933L274.333 51.5933C274.512 51.5933 274.631 51.653 274.751 51.7725L317.155 94.1763C317.274 94.2958 317.334 94.4152 317.334 94.5944L317.334 100.567L316.139 100.567L316.139 94.8333L274.094 52.7878L229.54 52.7878L229.54 51.5933Z" fill="black"/>
<path d="M259.402 89.8165L283.411 89.8165C283.59 89.8165 283.709 89.8762 283.829 89.9957L299.954 106.002L299.118 106.838L283.172 91.011L259.402 91.011L259.402 89.8165Z" fill="black"/>
<path d="M276.005 106.062L276.841 106.898L260.775 123.083C260.656 123.203 260.536 123.262 260.357 123.262L244.269 123.262L244.269 122.068L260.118 122.068L276.005 106.062Z" fill="black"/>
<path d="M184.748 136.401L279.589 136.401C279.768 136.401 279.888 136.461 280.007 136.58L289.503 146.196L288.667 147.032L279.35 137.596L184.748 137.596L184.748 136.401Z" fill="black"/>
<path d="M269.314 155.095L270.15 155.931L254.622 171.46C254.503 171.579 254.383 171.639 254.204 171.639L204.454 171.639L204.454 170.444L253.965 170.444L269.314 155.095Z" fill="black"/>
<path d="M259.641 22.328L283.71 46.3967C283.829 46.5161 283.889 46.6356 283.889 46.8147L283.889 61.1484L282.694 61.1484L282.694 47.0536L258.805 23.1642L259.641 22.328Z" fill="black"/>
<path d="M265.077 51.953L265.913 52.7891L250.086 68.7354C249.967 68.8548 249.847 68.9146 249.668 68.9146L189.526 68.9146L189.526 67.7201L249.37 67.7201L265.077 51.953Z" fill="black"/>
<path d="M209.235 34.87L235.991 34.87C236.17 34.87 236.289 34.9297 236.409 35.0492L253.251 51.8913L252.415 52.7274L235.752 36.0645L209.235 36.0645L209.235 34.87Z" fill="black"/>
<path d="M204.456 168.294C202.939 168.294 201.709 169.524 201.709 171.041C201.709 172.558 202.939 173.788 204.456 173.788C205.973 173.788 207.203 172.558 207.203 171.041C207.203 169.524 205.973 168.294 204.456 168.294Z" fill="black"/>
<path d="M241.487 149.182C244.951 149.182 247.817 151.989 247.817 155.513C247.817 159.037 245.01 161.844 241.487 161.844C237.963 161.844 235.156 159.037 235.156 155.513C235.156 151.989 238.023 149.182 241.487 149.182ZM241.487 160.649C244.294 160.649 246.623 158.32 246.623 155.513C246.623 152.706 244.294 150.377 241.487 150.377C238.68 150.377 236.35 152.706 236.35 155.513C236.35 158.32 238.68 160.649 241.487 160.649Z" fill="black"/>
<path d="M182.001 136.879C182.001 135.386 183.255 134.132 184.748 134.132C186.241 134.132 187.495 135.386 187.495 136.879C187.495 138.372 186.241 139.626 184.748 139.626C183.255 139.626 182.001 138.432 182.001 136.879Z" fill="black"/>
<path d="M244.271 119.918C242.754 119.918 241.524 121.148 241.524 122.665C241.524 124.182 242.754 125.412 244.271 125.412C245.789 125.412 247.019 124.182 247.019 122.665C247.019 121.148 245.789 119.918 244.271 119.918Z" fill="black"/>
<path d="M259.405 87.6663C257.888 87.6663 256.658 88.8963 256.658 90.4136C256.658 91.9309 257.888 93.1609 259.405 93.1609C260.922 93.1609 262.152 91.9309 262.152 90.4136C262.152 88.8963 260.922 87.6663 259.405 87.6663Z" fill="black"/>
<path d="M255.171 104.09C253.653 104.09 252.423 105.321 252.423 106.838C252.423 108.355 253.653 109.585 255.171 109.585C256.688 109.585 257.918 108.355 257.918 106.838C257.918 105.321 256.688 104.09 255.171 104.09Z" fill="black"/>
<path d="M189.525 65.5683C188.008 65.5683 186.778 66.7983 186.778 68.3156C186.778 69.8329 188.008 71.0629 189.525 71.0629C191.042 71.0629 192.272 69.8329 192.272 68.3156C192.272 66.7983 191.042 65.5683 189.525 65.5683Z" fill="black"/>
<path d="M224.164 45.9786C227.628 45.9786 230.495 48.7856 230.495 52.3093C230.495 55.833 227.688 58.64 224.164 58.64C220.641 58.64 217.834 55.833 217.834 52.3093C217.834 48.7856 220.7 45.9786 224.164 45.9786ZM224.164 57.4455C226.971 57.4455 229.301 55.1163 229.301 52.3093C229.301 49.5023 226.971 47.1731 224.164 47.1731C221.357 47.1731 219.028 49.5023 219.028 52.3093C219.028 55.1163 221.357 57.4455 224.164 57.4455Z" fill="black"/>
<path d="M209.234 32.7207C207.717 32.7207 206.487 33.9508 206.487 35.468C206.487 36.9853 207.717 38.2153 209.234 38.2153C210.751 38.2153 211.981 36.9853 211.981 35.468C211.981 33.9508 210.751 32.7207 209.234 32.7207Z" fill="black"/>
<path d="M256.474 22.7474C256.474 21.2543 257.728 20.0001 259.221 20.0001C260.715 20.0001 261.969 21.2543 261.969 22.7474C261.969 24.2404 260.715 25.4946 259.221 25.4946C257.669 25.4349 256.474 24.2404 256.474 22.7474Z" fill="black"/>
</g>
</g>
<g opacity="0.4">
<path d="M65.8618 87.2271H-34.8567V88.4261H65.8618V87.2271Z" fill="#A30C33"/>
<path d="M-39.6496 82.4321H-40.8486V75.2379C-40.8486 75.058 -40.7887 74.9381 -40.6688 74.8182L-3.97849 38.2478C-3.85858 38.1279 -3.73867 38.068 -3.55882 38.068L29.8941 38.068V39.267L-3.31902 39.267L-39.6496 75.4777V82.4321Z" fill="#A30C33"/>
<path d="M47.28 142.983H2.31642C2.13657 142.983 2.01666 142.923 1.89676 142.803L-40.6688 100.238C-40.7887 100.118 -40.8486 99.9978 -40.8486 99.8179V93.8228H-39.6496V99.5781L2.55622 141.784H47.28V142.983Z" fill="#A30C33"/>
<path d="M17.3018 104.614H-6.79873C-6.97858 104.614 -7.09848 104.554 -7.21838 104.434L-23.4053 88.367L-22.566 87.5277L-6.55891 103.415H17.3018V104.614Z" fill="#A30C33"/>
<path d="M0.63621 88.3067L-0.203125 87.4673L15.9238 71.2205C16.0437 71.1006 16.1636 71.0406 16.3435 71.0406H40.6838V72.2397H16.5833L0.63621 88.3067Z" fill="#A30C33"/>
<path d="M92.2391 57.8515L-2.96383 57.8515C-3.14368 57.8515 -3.26359 57.7916 -3.38349 57.6717L-12.9158 48.0195L-12.0765 47.1802L-2.72403 56.6525L92.2391 56.6525V57.8515Z" fill="#A30C33"/>
<path d="M7.34908 39.088L6.50977 38.2487L22.0971 22.6613C22.217 22.5414 22.337 22.4814 22.5168 22.4814L72.4564 22.4814V23.6805L22.7566 23.6805L7.34908 39.088Z" fill="#A30C33"/>
<path d="M17.0622 172.36L-7.09823 148.199C-7.21813 148.079 -7.27808 147.96 -7.27808 147.78L-7.27808 133.391H-6.07905L-6.07905 147.54L17.9015 171.52L17.0622 172.36Z" fill="#A30C33"/>
<path d="M11.6069 142.622L10.7676 141.783L26.6547 125.776C26.7746 125.656 26.8945 125.596 27.0744 125.596H87.4455V126.795H27.3741L11.6069 142.622Z" fill="#A30C33"/>
<path d="M67.6618 159.77H40.8035C40.6237 159.77 40.5038 159.71 40.3839 159.59L23.4775 142.684L24.3169 141.844L41.0433 158.571H67.6618V159.77Z" fill="#A30C33"/>
<path d="M72.4589 25.8373C73.982 25.8373 75.2167 24.6026 75.2167 23.0795C75.2167 21.5565 73.982 20.3218 72.4589 20.3218C70.9359 20.3218 69.7012 21.5565 69.7012 23.0795C69.7012 24.6026 70.9359 25.8373 72.4589 25.8373Z" fill="#A30C33"/>
<path d="M35.2885 45.0217C31.8113 45.0217 28.9336 42.204 28.9336 38.6669C28.9336 35.1297 31.7513 32.312 35.2885 32.312C38.8256 32.312 41.6433 35.1297 41.6433 38.6669C41.6433 42.204 38.7656 45.0217 35.2885 45.0217ZM35.2885 33.511C32.4707 33.511 30.1326 35.8491 30.1326 38.6669C30.1326 41.4846 32.4707 43.8227 35.2885 43.8227C38.1062 43.8227 40.4443 41.4846 40.4443 38.6669C40.4443 35.8491 38.1062 33.511 35.2885 33.511Z" fill="#A30C33"/>
<path d="M35.2863 41.4239C36.8094 41.4239 38.0441 40.1892 38.0441 38.6661C38.0441 37.143 36.8094 35.9083 35.2863 35.9083C33.7633 35.9083 32.5286 37.143 32.5286 38.6661C32.5286 40.1892 33.7633 41.4239 35.2863 41.4239Z" fill="#A30C33"/>
<path d="M94.9989 57.3721C94.9989 58.8709 93.74 60.1299 92.2412 60.1299C90.7424 60.1299 89.4834 58.8709 89.4834 57.3721C89.4834 55.8734 90.7424 54.6144 92.2412 54.6144C93.74 54.6144 94.9989 55.8134 94.9989 57.3721Z" fill="#A30C33"/>
<path d="M40.6826 74.3982C42.2056 74.3982 43.4403 73.1635 43.4403 71.6405C43.4403 70.1174 42.2056 68.8827 40.6826 68.8827C39.1595 68.8827 37.9248 70.1174 37.9248 71.6405C37.9248 73.1635 39.1595 74.3982 40.6826 74.3982Z" fill="#A30C33"/>
<path d="M71.2582 94.1825C67.781 94.1825 64.9033 91.3648 64.9033 87.8276C64.9033 84.2905 67.721 81.4728 71.2582 81.4728C74.7953 81.4728 77.613 84.2905 77.613 87.8276C77.613 91.3648 74.7354 94.1825 71.2582 94.1825ZM71.2582 82.6718C68.4405 82.6718 66.1023 85.0099 66.1023 87.8276C66.1023 90.6454 68.4405 92.9835 71.2582 92.9835C74.0759 92.9835 76.414 90.6454 76.414 87.8276C76.414 85.0099 74.0759 82.6718 71.2582 82.6718Z" fill="#A30C33"/>
<path d="M71.2558 90.5845C72.7789 90.5845 74.0136 89.3498 74.0136 87.8267C74.0136 86.3037 72.7789 85.069 71.2558 85.069C69.7327 85.069 68.498 86.3037 68.498 87.8267C68.498 89.3498 69.7327 90.5845 71.2558 90.5845Z" fill="#A30C33"/>
<path d="M17.2988 106.773C18.8219 106.773 20.0566 105.538 20.0566 104.015C20.0566 102.492 18.8219 101.257 17.2988 101.257C15.7757 101.257 14.541 102.492 14.541 104.015C14.541 105.538 15.7757 106.773 17.2988 106.773Z" fill="#A30C33"/>
<path d="M87.4462 128.955C88.9693 128.955 90.204 127.72 90.204 126.197C90.204 124.674 88.9693 123.439 87.4462 123.439C85.9232 123.439 84.6885 124.674 84.6885 126.197C84.6885 127.72 85.9232 128.955 87.4462 128.955Z" fill="#A30C33"/>
<path d="M52.6732 148.619C49.196 148.619 46.3184 145.801 46.3184 142.264C46.3184 138.727 49.1361 135.909 52.6732 135.909C56.2104 135.909 59.0281 138.727 59.0281 142.264C59.0281 145.801 56.1504 148.619 52.6732 148.619ZM52.6732 137.108C49.8555 137.108 47.5174 139.447 47.5174 142.264C47.5174 145.082 49.8555 147.42 52.6732 147.42C55.4909 147.42 57.829 145.082 57.829 142.264C57.829 139.447 55.4909 137.108 52.6732 137.108Z" fill="#A30C33"/>
<path d="M55.4303 142.263C55.4303 143.762 54.1714 145.021 52.6726 145.021C51.1738 145.021 49.9148 143.762 49.9148 142.263C49.9148 140.765 51.1738 139.506 52.6726 139.506C54.1714 139.506 55.4303 140.765 55.4303 142.263Z" fill="#A30C33"/>
<path d="M67.6611 161.927C69.1842 161.927 70.4189 160.693 70.4189 159.17C70.4189 157.647 69.1842 156.412 67.6611 156.412C66.138 156.412 64.9033 157.647 64.9033 159.17C64.9033 160.693 66.138 161.927 67.6611 161.927Z" fill="#A30C33"/>
<path d="M20.2421 171.939C20.2421 173.438 18.9831 174.697 17.4843 174.697C15.9855 174.697 14.7266 173.438 14.7266 171.939C14.7266 170.44 15.9855 169.181 17.4843 169.181C19.0431 169.241 20.2421 170.44 20.2421 171.939Z" fill="#A30C33"/>
<g opacity="0.4">
<path d="M65.866 87.2271H-36.0515V88.4261H65.866V87.2271Z" fill="black"/>
<path d="M-39.6494 82.4321H-40.8484V75.2379C-40.8484 75.058 -40.7884 74.9381 -40.6685 74.8182L-3.97824 38.2478C-3.85834 38.1279 -3.73843 38.068 -3.55857 38.068L29.8943 38.068V39.267L-3.31877 39.267L-39.6494 75.4777V82.4321Z" fill="black"/>
<path d="M47.2803 142.983H2.31667C2.13681 142.983 2.0169 142.923 1.897 142.803L-40.6685 100.238C-40.7884 100.118 -40.8484 99.9978 -40.8484 99.8179V93.8228H-39.6494V99.5781L2.55647 141.784H47.2803V142.983Z" fill="black"/>
<path d="M17.304 104.614H-6.79653C-6.97639 104.614 -7.09628 104.554 -7.21618 104.434L-23.4031 88.367L-22.5638 87.5277L-6.55671 103.415H17.304V104.614Z" fill="black"/>
<path d="M0.637187 88.3067L-0.202148 87.4673L15.9248 71.2205C16.0447 71.1006 16.1646 71.0406 16.3445 71.0406H40.6848V72.2397H16.5843L0.637187 88.3067Z" fill="black"/>
<path d="M92.243 57.8515L-2.95992 57.8515C-3.13978 57.8515 -3.25969 57.7916 -3.37959 57.6717L-12.9119 48.0195L-12.0725 47.1802L-2.72012 56.6525L92.243 56.6525V57.8515Z" fill="black"/>
<path d="M7.35323 39.088L6.51392 38.2487L22.1013 22.6613C22.2212 22.5414 22.3411 22.4814 22.521 22.4814L72.4605 22.4814V23.6805L22.7608 23.6805L7.35323 39.088Z" fill="black"/>
<path d="M17.0642 172.36L-7.09628 148.199C-7.21618 148.079 -7.27612 147.96 -7.27612 147.78L-7.27612 133.391H-6.07709L-6.07709 147.54L17.9035 171.52L17.0642 172.36Z" fill="black"/>
<path d="M11.6071 142.622L10.7678 141.783L26.655 125.776C26.7749 125.656 26.8948 125.596 27.0746 125.596H87.4457V126.795H27.3744L11.6071 142.622Z" fill="black"/>
<path d="M67.662 159.77H40.8038C40.6239 159.77 40.504 159.71 40.3841 159.59L23.4778 142.684L24.3171 141.844L41.0436 158.571H67.662V159.77Z" fill="black"/>
<path d="M72.4592 25.8373C73.9823 25.8373 75.217 24.6026 75.217 23.0795C75.217 21.5565 73.9823 20.3218 72.4592 20.3218C70.9361 20.3218 69.7014 21.5565 69.7014 23.0795C69.7014 24.6026 70.9361 25.8373 72.4592 25.8373Z" fill="black"/>
<path d="M35.2877 45.0217C31.8105 45.0217 28.9329 42.204 28.9329 38.6669C28.9329 35.1297 31.7506 32.312 35.2877 32.312C38.8249 32.312 41.6426 35.1297 41.6426 38.6669C41.6426 42.204 38.7649 45.0217 35.2877 45.0217ZM35.2877 33.511C32.47 33.511 30.1319 35.8491 30.1319 38.6669C30.1319 41.4846 32.47 43.8227 35.2877 43.8227C38.1054 43.8227 40.4436 41.4846 40.4436 38.6669C40.4436 35.8491 38.1054 33.511 35.2877 33.511Z" fill="black"/>
<path d="M95.0011 57.3721C95.0011 58.8709 93.7422 60.1299 92.2434 60.1299C90.7446 60.1299 89.4856 58.8709 89.4856 57.3721C89.4856 55.8734 90.7446 54.6144 92.2434 54.6144C93.7422 54.6144 95.0011 55.8134 95.0011 57.3721Z" fill="black"/>
<path d="M40.6828 74.3982C42.2059 74.3982 43.4406 73.1635 43.4406 71.6405C43.4406 70.1174 42.2059 68.8827 40.6828 68.8827C39.1597 68.8827 37.925 70.1174 37.925 71.6405C37.925 73.1635 39.1597 74.3982 40.6828 74.3982Z" fill="black"/>
<path d="M71.2594 94.1825C67.7822 94.1825 64.9045 91.3648 64.9045 87.8276C64.9045 84.2905 67.7223 81.4728 71.2594 81.4728C74.7965 81.4728 77.6143 84.2905 77.6143 87.8276C77.6143 91.3648 74.7366 94.1825 71.2594 94.1825ZM71.2594 82.6718C68.4417 82.6718 66.1036 85.0099 66.1036 87.8276C66.1036 90.6454 68.4417 92.9835 71.2594 92.9835C74.0771 92.9835 76.4152 90.6454 76.4152 87.8276C76.4152 85.0099 74.0771 82.6718 71.2594 82.6718Z" fill="black"/>
<path d="M17.301 106.773C18.8241 106.773 20.0588 105.538 20.0588 104.015C20.0588 102.492 18.8241 101.257 17.301 101.257C15.7779 101.257 14.5432 102.492 14.5432 104.015C14.5432 105.538 15.7779 106.773 17.301 106.773Z" fill="black"/>
<path d="M87.4465 128.955C88.9696 128.955 90.2043 127.72 90.2043 126.197C90.2043 124.674 88.9696 123.439 87.4465 123.439C85.9234 123.439 84.6887 124.674 84.6887 126.197C84.6887 127.72 85.9234 128.955 87.4465 128.955Z" fill="black"/>
<path d="M52.6754 148.619C49.1982 148.619 46.3206 145.801 46.3206 142.264C46.3206 138.727 49.1383 135.909 52.6754 135.909C56.2126 135.909 59.0303 138.727 59.0303 142.264C59.0303 145.801 56.1526 148.619 52.6754 148.619ZM52.6754 137.108C49.8577 137.108 47.5196 139.447 47.5196 142.264C47.5196 145.082 49.8577 147.42 52.6754 147.42C55.4931 147.42 57.8312 145.082 57.8312 142.264C57.8312 139.447 55.4931 137.108 52.6754 137.108Z" fill="black"/>
<path d="M67.6623 161.927C69.1854 161.927 70.4201 160.693 70.4201 159.17C70.4201 157.647 69.1854 156.412 67.6623 156.412C66.1392 156.412 64.9045 157.647 64.9045 159.17C64.9045 160.693 66.1392 161.927 67.6623 161.927Z" fill="black"/>
<path d="M20.2423 171.939C20.2423 173.438 18.9833 174.697 17.4846 174.697C15.9858 174.697 14.7268 173.438 14.7268 171.939C14.7268 170.44 15.9858 169.181 17.4846 169.181C19.0433 169.241 20.2423 170.44 20.2423 171.939Z" fill="black"/>
</g>
</g>
<rect opacity="0.5" y="-19" width="290" height="205" fill="#A30C33"/>
<path d="M77.3133 55H74.2333V42.12L69.6973 55H68.4933L64.0133 42.12V55H60.9053V36.324H65.1053L69.1093 47.692L73.1413 36.324H77.3133V55ZM83.4422 55H80.7262V41.476H83.5262V49.96L88.1462 41.476H91.0022V55H88.2302V46.236L83.4422 55ZM103.696 53.516C102.725 54.7293 101.353 55.336 99.5801 55.336C97.8067 55.336 96.3694 54.6733 95.2681 53.348C94.1854 52.004 93.6441 50.296 93.6441 48.224C93.6441 46.152 94.1854 44.4533 95.2681 43.128C96.3507 41.8027 97.7881 41.14 99.5801 41.14C101.353 41.14 102.725 41.7467 103.696 42.96L102.268 44.864C101.615 44.024 100.812 43.604 99.8601 43.604C98.8334 43.604 98.0214 44.0427 97.4241 44.92C96.8267 45.7973 96.5281 46.8987 96.5281 48.224C96.5281 49.568 96.8267 50.6787 97.4241 51.556C98.0214 52.4333 98.8334 52.872 99.8601 52.872C100.793 52.872 101.596 52.452 102.268 51.612L103.696 53.516ZM115.317 53.516C114.346 54.7293 112.974 55.336 111.201 55.336C109.428 55.336 107.99 54.6733 106.889 53.348C105.806 52.004 105.265 50.296 105.265 48.224C105.265 46.152 105.806 44.4533 106.889 43.128C107.972 41.8027 109.409 41.14 111.201 41.14C112.974 41.14 114.346 41.7467 115.317 42.96L113.889 44.864C113.236 44.024 112.433 43.604 111.481 43.604C110.454 43.604 109.642 44.0427 109.045 44.92C108.448 45.7973 108.149 46.8987 108.149 48.224C108.149 49.568 108.448 50.6787 109.045 51.556C109.642 52.4333 110.454 52.872 111.481 52.872C112.414 52.872 113.217 52.452 113.889 51.612L115.317 53.516ZM120.274 55H117.558V41.476H120.358V49.96L124.978 41.476H127.834V55H125.062V46.236L120.274 55ZM133.836 55H130.644L133.556 49.68C132.791 49.4747 132.147 49.036 131.624 48.364C131.101 47.6733 130.84 46.796 130.84 45.732C130.84 44.5 131.241 43.4827 132.044 42.68C132.847 41.8773 133.957 41.476 135.376 41.476H141.34V55H138.54V50.016H136.3L133.836 55ZM135.712 47.692H138.54V43.8H135.712C135.077 43.8 134.573 43.9773 134.2 44.332C133.845 44.6867 133.668 45.1533 133.668 45.732C133.668 46.3107 133.845 46.7867 134.2 47.16C134.555 47.5147 135.059 47.692 135.712 47.692ZM155.574 55.336C153.054 55.336 151.047 54.5427 149.554 52.956L151.122 50.548C152.298 51.892 153.782 52.564 155.574 52.564C156.488 52.564 157.198 52.3307 157.702 51.864C158.224 51.3787 158.486 50.7907 158.486 50.1C158.486 49.4093 158.196 48.8213 157.618 48.336C157.039 47.8507 156.339 47.44 155.518 47.104C154.715 46.7493 153.903 46.3667 153.082 45.956C152.26 45.5453 151.56 44.9387 150.982 44.136C150.403 43.3333 150.114 42.3627 150.114 41.224C150.114 39.7307 150.646 38.4893 151.71 37.5C152.774 36.5107 154.174 36.016 155.91 36.016C158.094 36.016 159.886 36.688 161.286 38.032L159.774 40.384C158.71 39.32 157.394 38.788 155.826 38.788C155.06 38.788 154.444 38.9933 153.978 39.404C153.511 39.8147 153.278 40.3653 153.278 41.056C153.278 41.6533 153.567 42.176 154.146 42.624C154.724 43.072 155.415 43.4733 156.218 43.828C157.039 44.164 157.86 44.5467 158.682 44.976C159.503 45.4053 160.203 46.04 160.782 46.88C161.36 47.7013 161.65 48.6907 161.65 49.848C161.65 51.4533 161.118 52.7693 160.054 53.796C158.99 54.8227 157.496 55.336 155.574 55.336ZM173.671 53.292C172.644 54.6547 171.216 55.336 169.387 55.336C167.557 55.336 166.12 54.6547 165.075 53.292C164.048 51.9293 163.535 50.24 163.535 48.224C163.535 46.208 164.048 44.528 165.075 43.184C166.101 41.8213 167.539 41.14 169.387 41.14C171.235 41.14 172.672 41.8213 173.699 43.184C174.725 44.528 175.239 46.208 175.239 48.224C175.239 50.24 174.716 51.9293 173.671 53.292ZM167.175 51.528C167.679 52.424 168.416 52.872 169.387 52.872C170.357 52.872 171.095 52.424 171.599 51.528C172.103 50.632 172.355 49.5307 172.355 48.224C172.355 46.9173 172.103 45.8253 171.599 44.948C171.095 44.052 170.357 43.604 169.387 43.604C168.416 43.604 167.679 44.052 167.175 44.948C166.671 45.8253 166.419 46.9173 166.419 48.224C166.419 49.5307 166.671 50.632 167.175 51.528ZM181.239 55H178.439V43.912H176.675V41.476H178.439V40.216C178.439 38.9093 178.775 37.892 179.447 37.164C180.137 36.4173 181.071 36.044 182.247 36.044C183.404 36.044 184.309 36.3613 184.963 36.996L184.011 38.956C183.637 38.5827 183.217 38.396 182.751 38.396C181.743 38.396 181.239 39.0027 181.239 40.216V41.476H183.479V43.912H181.239V55ZM189.202 55.336C187.111 55.336 186.066 54.216 186.066 51.976V43.912H184.302V41.476H186.066V37.78H188.866V41.476H191.106V43.912H188.866V51.388C188.866 52.3773 189.211 52.872 189.902 52.872C190.387 52.872 190.742 52.7227 190.966 52.424L191.638 54.524C191.097 55.0653 190.285 55.336 189.202 55.336ZM196.292 55H193.492V36.324H196.292V55ZM200.99 39.768C200.504 39.768 200.084 39.6 199.73 39.264C199.394 38.9093 199.226 38.4987 199.226 38.032C199.226 37.5467 199.394 37.136 199.73 36.8C200.084 36.4453 200.504 36.268 200.99 36.268C201.475 36.268 201.886 36.4453 202.222 36.8C202.558 37.136 202.726 37.5467 202.726 38.032C202.726 38.5173 202.548 38.928 202.194 39.264C201.858 39.6 201.456 39.768 200.99 39.768ZM202.39 55H199.59V41.476H202.39V55ZM215.963 55H213.163V45.788C213.163 44.332 212.519 43.604 211.231 43.604C210.671 43.604 210.139 43.7907 209.635 44.164C209.15 44.5187 208.767 44.9573 208.487 45.48V55H205.687V41.476H208.487V43.296C208.879 42.6987 209.43 42.1947 210.139 41.784C210.867 41.3547 211.623 41.14 212.407 41.14C214.778 41.14 215.963 42.3627 215.963 44.808V55ZM224.681 55.336C222.833 55.336 221.358 54.6827 220.257 53.376C219.156 52.0693 218.605 50.352 218.605 48.224C218.605 46.208 219.128 44.528 220.173 43.184C221.237 41.8213 222.646 41.14 224.401 41.14C226.174 41.14 227.556 41.812 228.545 43.156C229.534 44.5 230.029 46.2267 230.029 48.336V49.148H221.433C221.489 50.3053 221.825 51.248 222.441 51.976C223.057 52.6853 223.897 53.04 224.961 53.04C226.174 53.04 227.192 52.5547 228.013 51.584L229.357 53.264C228.144 54.6453 226.585 55.336 224.681 55.336ZM227.313 47.16C227.294 46.1707 227.042 45.3027 226.557 44.556C226.09 43.7907 225.362 43.408 224.373 43.408C223.421 43.408 222.702 43.7907 222.217 44.556C221.732 45.3213 221.461 46.1893 221.405 47.16H227.313Z" fill="white"/>
<path d="M66.0424 85H64.7944V76.616L61.9464 85H61.4504L58.6344 76.616V85H57.3544V74.328H59.1304L61.7064 81.912L64.2984 74.328H66.0424V85ZM68.2122 77.272H69.3483V80.296H71.2363C72.0043 80.296 72.5909 80.52 72.9963 80.968C73.4123 81.416 73.6203 81.976 73.6203 82.648C73.6203 83.32 73.4123 83.88 72.9963 84.328C72.5909 84.776 72.0043 85 71.2363 85H68.2122V77.272ZM71.1243 81.272H69.3483V84.024H71.1243C71.5403 84.024 71.8603 83.9013 72.0843 83.656C72.3189 83.4 72.4363 83.064 72.4363 82.648C72.4363 82.232 72.3243 81.9013 72.1003 81.656C71.8763 81.4 71.5509 81.272 71.1243 81.272ZM75.8923 85H74.7563V77.272H75.8923V85ZM86.7746 85H85.6386V78.28H82.5826V85H81.4466V77.272H86.7746V85ZM91.6361 85.192C90.6548 85.192 89.8868 84.8027 89.3321 84.024C88.7775 83.2453 88.5001 82.28 88.5001 81.128C88.5001 79.9867 88.7775 79.0267 89.3321 78.248C89.8868 77.4693 90.6548 77.08 91.6361 77.08C92.6281 77.08 93.4015 77.4693 93.9561 78.248C94.5108 79.016 94.7881 79.976 94.7881 81.128C94.7881 82.28 94.5108 83.2453 93.9561 84.024C93.4015 84.8027 92.6281 85.192 91.6361 85.192ZM91.6361 84.168C92.2761 84.168 92.7615 83.8747 93.0921 83.288C93.4228 82.7013 93.5881 81.9813 93.5881 81.128C93.5881 80.2853 93.4228 79.5707 93.0921 78.984C92.7615 78.3973 92.2761 78.104 91.6361 78.104C91.0068 78.104 90.5268 78.3973 90.1961 78.984C89.8655 79.5707 89.7001 80.2853 89.7001 81.128C89.7001 81.9813 89.8655 82.7013 90.1961 83.288C90.5268 83.8747 91.0068 84.168 91.6361 84.168ZM103.389 85H102.253V79.176L100.189 85H99.7091L97.6451 79.176V85H96.5091V77.272H98.0131L99.9491 82.712L101.885 77.272H103.389V85ZM108.23 85.192C107.249 85.192 106.481 84.8027 105.926 84.024C105.371 83.2453 105.094 82.28 105.094 81.128C105.094 79.9867 105.371 79.0267 105.926 78.248C106.481 77.4693 107.249 77.08 108.23 77.08C109.222 77.08 109.995 77.4693 110.55 78.248C111.105 79.016 111.382 79.976 111.382 81.128C111.382 82.28 111.105 83.2453 110.55 84.024C109.995 84.8027 109.222 85.192 108.23 85.192ZM108.23 84.168C108.87 84.168 109.355 83.8747 109.686 83.288C110.017 82.7013 110.182 81.9813 110.182 81.128C110.182 80.2853 110.017 79.5707 109.686 78.984C109.355 78.3973 108.87 78.104 108.23 78.104C107.601 78.104 107.121 78.3973 106.79 78.984C106.459 79.5707 106.294 80.2853 106.294 81.128C106.294 81.9813 106.459 82.7013 106.79 83.288C107.121 83.8747 107.601 84.168 108.23 84.168ZM117.503 77.272V78.28H114.239V85H113.103V77.272H117.503ZM124.051 85H122.899V84.168C122.419 84.8507 121.742 85.192 120.867 85.192C120.216 85.192 119.662 84.9573 119.203 84.488C118.755 84.0187 118.531 83.3947 118.531 82.616C118.531 81.8373 118.755 81.2187 119.203 80.76C119.651 80.3013 120.206 80.072 120.867 80.072C121.763 80.072 122.44 80.4027 122.899 81.064V79.72C122.899 79.1973 122.76 78.792 122.483 78.504C122.206 78.216 121.816 78.072 121.315 78.072C120.579 78.072 119.934 78.3867 119.379 79.016L118.867 78.2C119.582 77.4533 120.456 77.08 121.491 77.08C122.291 77.08 122.915 77.288 123.363 77.704C123.822 78.1093 124.051 78.7387 124.051 79.592V85ZM121.235 84.36C121.982 84.36 122.536 84.0347 122.899 83.384V81.912C122.547 81.2507 121.992 80.92 121.235 80.92C120.766 80.92 120.392 81.0853 120.115 81.416C119.838 81.736 119.699 82.1413 119.699 82.632C119.699 83.1227 119.838 83.5333 120.115 83.864C120.392 84.1947 120.766 84.36 121.235 84.36ZM129.078 85.192C128.064 85.192 127.259 84.8187 126.662 84.072C126.064 83.3147 125.766 82.3333 125.766 81.128C125.766 79.976 126.048 79.016 126.614 78.248C127.19 77.4693 127.952 77.08 128.902 77.08C129.883 77.08 130.635 77.464 131.158 78.232C131.691 79 131.958 79.976 131.958 81.16V81.512H126.95C126.971 82.312 127.179 82.968 127.574 83.48C127.968 83.9813 128.502 84.232 129.174 84.232C129.899 84.232 130.512 83.9173 131.014 83.288L131.622 83.96C130.95 84.7813 130.102 85.192 129.078 85.192ZM130.822 80.664C130.811 79.9707 130.646 79.3627 130.326 78.84C130.006 78.3067 129.526 78.04 128.886 78.04C128.267 78.04 127.792 78.312 127.462 78.856C127.142 79.3893 126.971 79.992 126.95 80.664H130.822ZM140.514 85H139.378V79.176L137.314 85H136.834L134.77 79.176V85H133.634V77.272H135.138L137.074 82.712L139.01 77.272H140.514V85ZM148.792 85.192C147.811 85.192 147.043 84.8027 146.488 84.024C145.934 83.2453 145.656 82.28 145.656 81.128C145.656 79.9867 145.934 79.0267 146.488 78.248C147.043 77.4693 147.811 77.08 148.792 77.08C149.784 77.08 150.558 77.4693 151.112 78.248C151.667 79.016 151.944 79.976 151.944 81.128C151.944 82.28 151.667 83.2453 151.112 84.024C150.558 84.8027 149.784 85.192 148.792 85.192ZM148.792 84.168C149.432 84.168 149.918 83.8747 150.248 83.288C150.579 82.7013 150.744 81.9813 150.744 81.128C150.744 80.2853 150.579 79.5707 150.248 78.984C149.918 78.3973 149.432 78.104 148.792 78.104C148.163 78.104 147.683 78.3973 147.352 78.984C147.022 79.5707 146.856 80.2853 146.856 81.128C146.856 81.9813 147.022 82.7013 147.352 83.288C147.683 83.8747 148.163 84.168 148.792 84.168ZM158.865 84.088C158.375 84.824 157.697 85.192 156.833 85.192C155.969 85.192 155.292 84.7547 154.801 83.88V87.944H153.665V77.272H154.801V78.376C155.025 77.9813 155.319 77.6667 155.681 77.432C156.044 77.1973 156.428 77.08 156.833 77.08C157.697 77.08 158.375 77.448 158.865 78.184C159.356 78.92 159.601 79.9013 159.601 81.128C159.601 82.3547 159.356 83.3413 158.865 84.088ZM156.545 84.168C157.153 84.168 157.612 83.8853 157.921 83.32C158.241 82.744 158.401 82.0133 158.401 81.128C158.401 80.2427 158.241 79.5173 157.921 78.952C157.612 78.3867 157.153 78.104 156.545 78.104C156.193 78.104 155.852 78.2267 155.521 78.472C155.201 78.7067 154.961 79 154.801 79.352V82.888C154.961 83.24 155.201 83.544 155.521 83.8C155.852 84.0453 156.193 84.168 156.545 84.168ZM165.706 77.272V78.28H162.442V85H161.306V77.272H165.706ZM172.254 85H171.102V84.168C170.622 84.8507 169.945 85.192 169.07 85.192C168.419 85.192 167.865 84.9573 167.406 84.488C166.958 84.0187 166.734 83.3947 166.734 82.616C166.734 81.8373 166.958 81.2187 167.406 80.76C167.854 80.3013 168.409 80.072 169.07 80.072C169.966 80.072 170.643 80.4027 171.102 81.064V79.72C171.102 79.1973 170.963 78.792 170.686 78.504C170.409 78.216 170.019 78.072 169.518 78.072C168.782 78.072 168.137 78.3867 167.582 79.016L167.07 78.2C167.785 77.4533 168.659 77.08 169.694 77.08C170.494 77.08 171.118 77.288 171.566 77.704C172.025 78.1093 172.254 78.7387 172.254 79.592V85ZM169.438 84.36C170.185 84.36 170.739 84.0347 171.102 83.384V81.912C170.75 81.2507 170.195 80.92 169.438 80.92C168.969 80.92 168.595 81.0853 168.318 81.416C168.041 81.736 167.902 82.1413 167.902 82.632C167.902 83.1227 168.041 83.5333 168.318 83.864C168.595 84.1947 168.969 84.36 169.438 84.36ZM175.489 85H174.353V77.272H175.489V80.488H178.545V77.272H179.681V85H178.545V81.496H175.489V85ZM182.926 85H181.79V77.272H182.926V82.888L185.934 77.272H187.118V85H185.982V79.256L182.926 85ZM191.452 85.192C190.204 85.192 189.239 84.7707 188.556 83.928L189.18 83.24C189.735 83.912 190.487 84.248 191.436 84.248C191.98 84.248 192.417 84.12 192.748 83.864C193.079 83.608 193.244 83.272 193.244 82.856C193.244 81.992 192.615 81.56 191.356 81.56H189.916V80.616H191.34C191.873 80.616 192.3 80.4987 192.62 80.264C192.951 80.0293 193.116 79.704 193.116 79.288C193.116 78.904 192.951 78.6 192.62 78.376C192.289 78.1413 191.857 78.024 191.324 78.024C190.46 78.024 189.788 78.3493 189.308 79L188.668 78.328C189.308 77.496 190.183 77.08 191.292 77.08C192.188 77.08 192.908 77.2667 193.452 77.64C194.007 78.0133 194.284 78.52 194.284 79.16C194.284 79.6293 194.108 80.04 193.756 80.392C193.415 80.744 193.009 80.968 192.54 81.064C193.031 81.1173 193.463 81.3093 193.836 81.64C194.22 81.9707 194.412 82.4027 194.412 82.936C194.412 83.5867 194.151 84.1253 193.628 84.552C193.105 84.9787 192.38 85.192 191.452 85.192ZM201.254 85H200.102V84.168C199.622 84.8507 198.945 85.192 198.07 85.192C197.419 85.192 196.865 84.9573 196.406 84.488C195.958 84.0187 195.734 83.3947 195.734 82.616C195.734 81.8373 195.958 81.2187 196.406 80.76C196.854 80.3013 197.409 80.072 198.07 80.072C198.966 80.072 199.643 80.4027 200.102 81.064V79.72C200.102 79.1973 199.963 78.792 199.686 78.504C199.409 78.216 199.019 78.072 198.518 78.072C197.782 78.072 197.137 78.3867 196.582 79.016L196.07 78.2C196.785 77.4533 197.659 77.08 198.694 77.08C199.494 77.08 200.118 77.288 200.566 77.704C201.025 78.1093 201.254 78.7387 201.254 79.592V85ZM198.438 84.36C199.185 84.36 199.739 84.0347 200.102 83.384V81.912C199.75 81.2507 199.195 80.92 198.438 80.92C197.969 80.92 197.595 81.0853 197.318 81.416C197.041 81.736 196.902 82.1413 196.902 82.632C196.902 83.1227 197.041 83.5333 197.318 83.864C197.595 84.1947 197.969 84.36 198.438 84.36ZM208.425 86.968V85H203.353V77.272H204.489V83.992H207.545V77.272H208.681V83.992H209.561V86.968H208.425ZM212.145 85H211.009V77.272H212.145V82.888L215.153 77.272H216.337V85H215.201V79.256L212.145 85ZM219.503 85H218.191L219.903 81.848C219.433 81.752 219.044 81.512 218.735 81.128C218.425 80.7333 218.271 80.232 218.271 79.624C218.271 78.9413 218.479 78.3813 218.895 77.944C219.321 77.496 219.908 77.272 220.655 77.272H223.743V85H222.591V81.976H221.055L219.503 85ZM220.767 81H222.591V78.248H220.767C220.351 78.248 220.025 78.376 219.791 78.632C219.567 78.8773 219.455 79.208 219.455 79.624C219.455 80.04 219.567 80.376 219.791 80.632C220.015 80.8773 220.34 81 220.767 81ZM232.733 85H231.597V79.176L229.533 85H229.053L226.989 79.176V85H225.853V77.272H227.357L229.293 82.712L231.229 77.272H232.733V85ZM9.81163 106H8.65963V99.28H6.88363V98.272H11.5876V99.28H9.81163V106ZM18.2091 105.088C17.7185 105.824 17.0411 106.192 16.1771 106.192C15.3131 106.192 14.6358 105.755 14.1451 104.88V108.944H13.0091V98.272H14.1451V99.376C14.3691 98.9813 14.6625 98.6667 15.0251 98.432C15.3878 98.1973 15.7718 98.08 16.1771 98.08C17.0411 98.08 17.7185 98.448 18.2091 99.184C18.6998 99.92 18.9451 100.901 18.9451 102.128C18.9451 103.355 18.6998 104.341 18.2091 105.088ZM15.8891 105.168C16.4971 105.168 16.9558 104.885 17.2651 104.32C17.5851 103.744 17.7451 103.013 17.7451 102.128C17.7451 101.243 17.5851 100.517 17.2651 99.952C16.9558 99.3867 16.4971 99.104 15.8891 99.104C15.5371 99.104 15.1958 99.2267 14.8651 99.472C14.5451 99.7067 14.3051 100 14.1451 100.352V103.888C14.3051 104.24 14.5451 104.544 14.8651 104.8C15.1958 105.045 15.5371 105.168 15.8891 105.168ZM25.7698 106H24.6178V105.168C24.1378 105.851 23.4604 106.192 22.5858 106.192C21.9351 106.192 21.3804 105.957 20.9218 105.488C20.4738 105.019 20.2498 104.395 20.2498 103.616C20.2498 102.837 20.4738 102.219 20.9218 101.76C21.3698 101.301 21.9244 101.072 22.5858 101.072C23.4818 101.072 24.1591 101.403 24.6178 102.064V100.72C24.6178 100.197 24.4791 99.792 24.2018 99.504C23.9244 99.216 23.5351 99.072 23.0338 99.072C22.2978 99.072 21.6524 99.3867 21.0978 100.016L20.5858 99.2C21.3004 98.4533 22.1751 98.08 23.2098 98.08C24.0098 98.08 24.6338 98.288 25.0818 98.704C25.5404 99.1093 25.7698 99.7387 25.7698 100.592V106ZM22.9538 105.36C23.7004 105.36 24.2551 105.035 24.6178 104.384V102.912C24.2658 102.251 23.7111 101.92 22.9538 101.92C22.4844 101.92 22.1111 102.085 21.8338 102.416C21.5564 102.736 21.4178 103.141 21.4178 103.632C21.4178 104.123 21.5564 104.533 21.8338 104.864C22.1111 105.195 22.4844 105.36 22.9538 105.36ZM29.0045 106H27.8685V98.272H29.0045V101.488H32.0605V98.272H33.1965V106H32.0605V102.496H29.0045V106ZM38.122 106.192C37.1513 106.192 36.3727 105.808 35.786 105.04C35.21 104.272 34.922 103.301 34.922 102.128C34.922 100.955 35.21 99.9893 35.786 99.232C36.3727 98.464 37.1513 98.08 38.122 98.08C39.0393 98.08 39.7753 98.4213 40.33 99.104L39.706 99.888C39.322 99.3653 38.826 99.104 38.218 99.104C37.5567 99.104 37.0393 99.392 36.666 99.968C36.3033 100.544 36.122 101.264 36.122 102.128C36.122 102.992 36.3033 103.717 36.666 104.304C37.0393 104.88 37.5567 105.168 38.218 105.168C38.8153 105.168 39.3113 104.907 39.706 104.384L40.33 105.168C39.786 105.851 39.05 106.192 38.122 106.192ZM42.174 99.2C42.59 98.4533 43.1607 98.08 43.886 98.08C44.6113 98.08 45.1873 98.512 45.614 99.376V95.328H46.75V99.36C46.942 98.9653 47.1927 98.656 47.502 98.432C47.8113 98.1973 48.1367 98.08 48.478 98.08C49.2033 98.08 49.774 98.448 50.19 99.184C50.606 99.92 50.814 100.901 50.814 102.128C50.814 103.355 50.606 104.341 50.19 105.088C49.774 105.824 49.2033 106.192 48.478 106.192C48.1367 106.192 47.8113 106.08 47.502 105.856C47.1927 105.632 46.942 105.312 46.75 104.896V108.944H45.614V104.912C45.4327 105.307 45.1873 105.621 44.878 105.856C44.5687 106.08 44.238 106.192 43.886 106.192C43.1607 106.192 42.59 105.824 42.174 105.088C41.758 104.352 41.55 103.371 41.55 102.144C41.55 100.917 41.758 99.936 42.174 99.2ZM44.206 99.104C43.7153 99.104 43.342 99.3867 43.086 99.952C42.8407 100.517 42.718 101.248 42.718 102.144C42.718 103.019 42.846 103.744 43.102 104.32C43.3687 104.885 43.742 105.168 44.222 105.168C44.4993 105.168 44.766 105.045 45.022 104.8C45.2887 104.555 45.486 104.256 45.614 103.904V100.368C45.486 100.016 45.2887 99.7173 45.022 99.472C44.766 99.2267 44.494 99.104 44.206 99.104ZM48.142 105.168C48.622 105.168 48.99 104.885 49.246 104.32C49.5127 103.744 49.646 103.013 49.646 102.128C49.646 101.243 49.518 100.517 49.262 99.952C49.0167 99.3867 48.6487 99.104 48.158 99.104C47.87 99.104 47.5927 99.2267 47.326 99.472C47.07 99.7067 46.878 100 46.75 100.352V103.888C46.878 104.24 47.07 104.544 47.326 104.8C47.5927 105.045 47.8647 105.168 48.142 105.168ZM55.4174 106.192C54.436 106.192 53.668 105.803 53.1134 105.024C52.5587 104.245 52.2814 103.28 52.2814 102.128C52.2814 100.987 52.5587 100.027 53.1134 99.248C53.668 98.4693 54.436 98.08 55.4174 98.08C56.4094 98.08 57.1827 98.4693 57.7374 99.248C58.292 100.016 58.5694 100.976 58.5694 102.128C58.5694 103.28 58.292 104.245 57.7374 105.024C57.1827 105.803 56.4094 106.192 55.4174 106.192ZM55.4174 105.168C56.0574 105.168 56.5427 104.875 56.8734 104.288C57.204 103.701 57.3694 102.981 57.3694 102.128C57.3694 101.285 57.204 100.571 56.8734 99.984C56.5427 99.3973 56.0574 99.104 55.4174 99.104C54.788 99.104 54.308 99.3973 53.9774 99.984C53.6467 100.571 53.4814 101.285 53.4814 102.128C53.4814 102.981 53.6467 103.701 53.9774 104.288C54.308 104.875 54.788 105.168 55.4174 105.168ZM65.4904 105.088C64.9997 105.824 64.3224 106.192 63.4584 106.192C62.5944 106.192 61.917 105.755 61.4264 104.88V108.944H60.2904V98.272H61.4264V99.376C61.6504 98.9813 61.9437 98.6667 62.3064 98.432C62.669 98.1973 63.053 98.08 63.4584 98.08C64.3224 98.08 64.9997 98.448 65.4904 99.184C65.981 99.92 66.2264 100.901 66.2264 102.128C66.2264 103.355 65.981 104.341 65.4904 105.088ZM63.1704 105.168C63.7784 105.168 64.237 104.885 64.5464 104.32C64.8664 103.744 65.0264 103.013 65.0264 102.128C65.0264 101.243 64.8664 100.517 64.5464 99.952C64.237 99.3867 63.7784 99.104 63.1704 99.104C62.8184 99.104 62.477 99.2267 62.1464 99.472C61.8264 99.7067 61.5864 100 61.4264 100.352V103.888C61.5864 104.24 61.8264 104.544 62.1464 104.8C62.477 105.045 62.8184 105.168 63.1704 105.168ZM74.811 106H73.675V100.176L71.611 106H71.131L69.067 100.176V106H67.931V98.272H69.435L71.371 103.712L73.307 98.272H74.811V106ZM78.0358 106H76.8997V98.272H78.0358V103.888L81.0438 98.272H82.2278V106H81.0918V100.256L78.0358 106ZM89.5373 105.088C89.0466 105.824 88.3693 106.192 87.5052 106.192C86.6413 106.192 85.9639 105.755 85.4733 104.88V108.944H84.3372V98.272H85.4733V99.376C85.6973 98.9813 85.9906 98.6667 86.3533 98.432C86.7159 98.1973 87.0999 98.08 87.5052 98.08C88.3693 98.08 89.0466 98.448 89.5373 99.184C90.0279 99.92 90.2733 100.901 90.2733 102.128C90.2733 103.355 90.0279 104.341 89.5373 105.088ZM87.2173 105.168C87.8253 105.168 88.2839 104.885 88.5933 104.32C88.9133 103.744 89.0733 103.013 89.0733 102.128C89.0733 101.243 88.9133 100.517 88.5933 99.952C88.2839 99.3867 87.8253 99.104 87.2173 99.104C86.8653 99.104 86.5239 99.2267 86.1933 99.472C85.8733 99.7067 85.6333 100 85.4733 100.352V103.888C85.6333 104.24 85.8733 104.544 86.1933 104.8C86.5239 105.045 86.8653 105.168 87.2173 105.168ZM94.7299 106.192C93.7485 106.192 92.9805 105.803 92.4259 105.024C91.8712 104.245 91.5939 103.28 91.5939 102.128C91.5939 100.987 91.8712 100.027 92.4259 99.248C92.9805 98.4693 93.7485 98.08 94.7299 98.08C95.7219 98.08 96.4952 98.4693 97.0499 99.248C97.6045 100.016 97.8819 100.976 97.8819 102.128C97.8819 103.28 97.6045 104.245 97.0499 105.024C96.4952 105.803 95.7219 106.192 94.7299 106.192ZM94.7299 105.168C95.3699 105.168 95.8552 104.875 96.1859 104.288C96.5165 103.701 96.6819 102.981 96.6819 102.128C96.6819 101.285 96.5165 100.571 96.1859 99.984C95.8552 99.3973 95.3699 99.104 94.7299 99.104C94.1005 99.104 93.6205 99.3973 93.2899 99.984C92.9592 100.571 92.7939 101.285 92.7939 102.128C92.7939 102.981 92.9592 103.701 93.2899 104.288C93.6205 104.875 94.1005 105.168 94.7299 105.168ZM102.867 106H99.6029V98.272H102.803C103.475 98.272 103.998 98.4533 104.371 98.816C104.755 99.168 104.947 99.648 104.947 100.256C104.947 100.704 104.835 101.077 104.611 101.376C104.398 101.675 104.104 101.883 103.731 102C104.126 102.107 104.451 102.341 104.707 102.704C104.963 103.056 105.091 103.456 105.091 103.904C105.091 104.544 104.899 105.056 104.515 105.44C104.142 105.813 103.592 106 102.867 106ZM102.659 105.024C103.491 105.024 103.907 104.613 103.907 103.792C103.907 103.429 103.8 103.125 103.587 102.88C103.374 102.635 103.064 102.512 102.659 102.512H100.739V105.024H102.659ZM102.595 101.552C102.979 101.552 103.267 101.445 103.459 101.232C103.662 101.019 103.763 100.741 103.763 100.4C103.763 100.059 103.667 99.7813 103.475 99.568C103.283 99.344 102.99 99.232 102.595 99.232H100.739V101.552H102.595ZM112.145 106H110.993V105.168C110.513 105.851 109.835 106.192 108.961 106.192C108.31 106.192 107.755 105.957 107.297 105.488C106.849 105.019 106.625 104.395 106.625 103.616C106.625 102.837 106.849 102.219 107.297 101.76C107.745 101.301 108.299 101.072 108.961 101.072C109.857 101.072 110.534 101.403 110.993 102.064V100.72C110.993 100.197 110.854 99.792 110.577 99.504C110.299 99.216 109.91 99.072 109.409 99.072C108.673 99.072 108.027 99.3867 107.473 100.016L106.961 99.2C107.675 98.4533 108.55 98.08 109.585 98.08C110.385 98.08 111.009 98.288 111.457 98.704C111.915 99.1093 112.145 99.7387 112.145 100.592V106ZM109.329 105.36C110.075 105.36 110.63 105.035 110.993 104.384V102.912C110.641 102.251 110.086 101.92 109.329 101.92C108.859 101.92 108.486 102.085 108.209 102.416C107.931 102.736 107.793 103.141 107.793 103.632C107.793 104.123 107.931 104.533 108.209 104.864C108.486 105.195 108.859 105.36 109.329 105.36ZM116.484 106H115.332V99.28H113.556V98.272H118.26V99.28H116.484V106ZM119.681 98.272H120.817V101.296H122.705C123.473 101.296 124.06 101.52 124.465 101.968C124.881 102.416 125.089 102.976 125.089 103.648C125.089 104.32 124.881 104.88 124.465 105.328C124.06 105.776 123.473 106 122.705 106H119.681V98.272ZM122.593 102.272H120.817V105.024H122.593C123.009 105.024 123.329 104.901 123.553 104.656C123.788 104.4 123.905 104.064 123.905 103.648C123.905 103.232 123.793 102.901 123.569 102.656C123.345 102.4 123.02 102.272 122.593 102.272ZM129.544 106.192C128.573 106.192 127.795 105.808 127.208 105.04C126.632 104.272 126.344 103.301 126.344 102.128C126.344 100.955 126.632 99.9893 127.208 99.232C127.795 98.464 128.573 98.08 129.544 98.08C130.461 98.08 131.197 98.4213 131.752 99.104L131.128 99.888C130.744 99.3653 130.248 99.104 129.64 99.104C128.979 99.104 128.461 99.392 128.088 99.968C127.725 100.544 127.544 101.264 127.544 102.128C127.544 102.992 127.725 103.717 128.088 104.304C128.461 104.88 128.979 105.168 129.64 105.168C130.237 105.168 130.733 104.907 131.128 104.384L131.752 105.168C131.208 105.851 130.472 106.192 129.544 106.192ZM134.284 106H132.972L134.684 102.848C134.215 102.752 133.825 102.512 133.516 102.128C133.207 101.733 133.052 101.232 133.052 100.624C133.052 99.9413 133.26 99.3813 133.676 98.944C134.103 98.496 134.689 98.272 135.436 98.272H138.524V106H137.372V102.976H135.836L134.284 106ZM135.548 102H137.372V99.248H135.548C135.132 99.248 134.807 99.376 134.572 99.632C134.348 99.8773 134.236 100.208 134.236 100.624C134.236 101.04 134.348 101.376 134.572 101.632C134.796 101.877 135.121 102 135.548 102ZM142.346 105.648C142.346 106.107 142.223 106.549 141.978 106.976C141.743 107.403 141.439 107.749 141.066 108.016L140.49 107.552C140.746 107.371 140.97 107.141 141.162 106.864C141.365 106.587 141.482 106.32 141.514 106.064C141.503 106.064 141.471 106.064 141.418 106.064C141.365 106.075 141.327 106.08 141.306 106.08C141.093 106.08 140.911 106.005 140.762 105.856C140.623 105.707 140.554 105.52 140.554 105.296C140.554 105.061 140.634 104.864 140.794 104.704C140.954 104.533 141.151 104.448 141.386 104.448C141.653 104.448 141.877 104.555 142.058 104.768C142.25 104.981 142.346 105.275 142.346 105.648ZM152.912 105.088C152.422 105.824 151.744 106.192 150.88 106.192C150.016 106.192 149.339 105.755 148.848 104.88V108.944H147.712V98.272H148.848V99.376C149.072 98.9813 149.366 98.6667 149.728 98.432C150.091 98.1973 150.475 98.08 150.88 98.08C151.744 98.08 152.422 98.448 152.912 99.184C153.403 99.92 153.648 100.901 153.648 102.128C153.648 103.355 153.403 104.341 152.912 105.088ZM150.592 105.168C151.2 105.168 151.659 104.885 151.968 104.32C152.288 103.744 152.448 103.013 152.448 102.128C152.448 101.243 152.288 100.517 151.968 99.952C151.659 99.3867 151.2 99.104 150.592 99.104C150.24 99.104 149.899 99.2267 149.568 99.472C149.248 99.7067 149.008 100 148.848 100.352V103.888C149.008 104.24 149.248 104.544 149.568 104.8C149.899 105.045 150.24 105.168 150.592 105.168ZM160.473 106H159.321V105.168C158.841 105.851 158.164 106.192 157.289 106.192C156.638 106.192 156.084 105.957 155.625 105.488C155.177 105.019 154.953 104.395 154.953 103.616C154.953 102.837 155.177 102.219 155.625 101.76C156.073 101.301 156.628 101.072 157.289 101.072C158.185 101.072 158.862 101.403 159.321 102.064V100.72C159.321 100.197 159.182 99.792 158.905 99.504C158.628 99.216 158.238 99.072 157.737 99.072C157.001 99.072 156.356 99.3867 155.801 100.016L155.289 99.2C156.004 98.4533 156.878 98.08 157.913 98.08C158.713 98.08 159.337 98.288 159.785 98.704C160.244 99.1093 160.473 99.7387 160.473 100.592V106ZM157.657 105.36C158.404 105.36 158.958 105.035 159.321 104.384V102.912C158.969 102.251 158.414 101.92 157.657 101.92C157.188 101.92 156.814 102.085 156.537 102.416C156.26 102.736 156.121 103.141 156.121 103.632C156.121 104.123 156.26 104.533 156.537 104.864C156.814 105.195 157.188 105.36 157.657 105.36ZM165.324 105.168C165.964 105.168 166.444 104.875 166.764 104.288C167.094 103.701 167.26 102.976 167.26 102.112C167.26 101.269 167.094 100.56 166.764 99.984C166.433 99.3973 165.953 99.104 165.324 99.104C164.694 99.104 164.214 99.3973 163.884 99.984C163.553 100.56 163.388 101.269 163.388 102.112C163.388 102.976 163.553 103.701 163.884 104.288C164.214 104.875 164.694 105.168 165.324 105.168ZM167.628 105.024C167.084 105.803 166.316 106.192 165.324 106.192C164.332 106.192 163.558 105.787 163.004 104.976C162.46 104.165 162.188 103.099 162.188 101.776C162.188 99.8453 162.428 98.4747 162.908 97.664C163.388 96.8533 164.252 96.336 165.5 96.112C166.097 96.0053 166.513 95.8933 166.748 95.776C166.982 95.648 167.1 95.4987 167.1 95.328H168.236C168.236 95.616 168.166 95.8667 168.028 96.08C167.889 96.2827 167.686 96.4533 167.42 96.592C167.153 96.72 166.897 96.8213 166.652 96.896C166.406 96.96 166.113 97.024 165.772 97.088C164.908 97.248 164.284 97.5253 163.9 97.92C163.526 98.304 163.292 98.848 163.196 99.552C163.409 99.136 163.713 98.7893 164.108 98.512C164.502 98.224 164.966 98.08 165.5 98.08C166.417 98.08 167.137 98.4693 167.66 99.248C168.193 100.016 168.46 100.971 168.46 102.112C168.46 103.264 168.182 104.235 167.628 105.024ZM173.011 106.192C172.03 106.192 171.262 105.803 170.707 105.024C170.152 104.245 169.875 103.28 169.875 102.128C169.875 100.987 170.152 100.027 170.707 99.248C171.262 98.4693 172.03 98.08 173.011 98.08C174.003 98.08 174.776 98.4693 175.331 99.248C175.886 100.016 176.163 100.976 176.163 102.128C176.163 103.28 175.886 104.245 175.331 105.024C174.776 105.803 174.003 106.192 173.011 106.192ZM173.011 105.168C173.651 105.168 174.136 104.875 174.467 104.288C174.798 103.701 174.963 102.981 174.963 102.128C174.963 101.285 174.798 100.571 174.467 99.984C174.136 99.3973 173.651 99.104 173.011 99.104C172.382 99.104 171.902 99.3973 171.571 99.984C171.24 100.571 171.075 101.285 171.075 102.128C171.075 102.981 171.24 103.701 171.571 104.288C171.902 104.875 172.382 105.168 173.011 105.168ZM180.124 106H178.972V99.28H177.196V98.272H181.9V99.28H180.124V106ZM188.442 106H187.29V105.168C186.81 105.851 186.132 106.192 185.258 106.192C184.607 106.192 184.052 105.957 183.594 105.488C183.146 105.019 182.922 104.395 182.922 103.616C182.922 102.837 183.146 102.219 183.594 101.76C184.042 101.301 184.596 101.072 185.258 101.072C186.154 101.072 186.831 101.403 187.29 102.064V100.72C187.29 100.197 187.151 99.792 186.874 99.504C186.596 99.216 186.207 99.072 185.706 99.072C184.97 99.072 184.324 99.3867 183.77 100.016L183.258 99.2C183.972 98.4533 184.847 98.08 185.882 98.08C186.682 98.08 187.306 98.288 187.754 98.704C188.212 99.1093 188.442 99.7387 188.442 100.592V106ZM185.626 105.36C186.372 105.36 186.927 105.035 187.29 104.384V102.912C186.938 102.251 186.383 101.92 185.626 101.92C185.156 101.92 184.783 102.085 184.506 102.416C184.228 102.736 184.09 103.141 184.09 103.632C184.09 104.123 184.228 104.533 184.506 104.864C184.783 105.195 185.156 105.36 185.626 105.36ZM192.78 106H191.628V99.28H189.852V98.272H194.556V99.28H192.78V106ZM195.978 98.272H197.114V101.296H199.002C199.77 101.296 200.357 101.52 200.762 101.968C201.178 102.416 201.386 102.976 201.386 103.648C201.386 104.32 201.178 104.88 200.762 105.328C200.357 105.776 199.77 106 199.002 106H195.978V98.272ZM198.89 102.272H197.114V105.024H198.89C199.306 105.024 199.626 104.901 199.85 104.656C200.085 104.4 200.202 104.064 200.202 103.648C200.202 103.232 200.09 102.901 199.866 102.656C199.642 102.4 199.317 102.272 198.89 102.272ZM208.03 106.192C207.102 106.192 206.366 105.851 205.822 105.168L206.43 104.432C206.836 104.965 207.337 105.232 207.934 105.232C208.532 105.232 209.012 104.987 209.374 104.496C209.737 104.005 209.945 103.371 209.998 102.592H206.894V101.584H209.998C209.934 100.837 209.721 100.229 209.358 99.76C208.996 99.28 208.521 99.04 207.934 99.04C207.337 99.04 206.836 99.3067 206.43 99.84L205.822 99.104C206.377 98.4213 207.113 98.08 208.03 98.08C209.012 98.08 209.79 98.464 210.366 99.232C210.942 99.9893 211.23 100.955 211.23 102.128C211.23 103.301 210.942 104.272 210.366 105.04C209.79 105.808 209.012 106.192 208.03 106.192ZM213.33 99.2C213.746 98.4533 214.317 98.08 215.042 98.08C215.768 98.08 216.344 98.512 216.77 99.376V95.328H217.906V99.36C218.098 98.9653 218.349 98.656 218.658 98.432C218.968 98.1973 219.293 98.08 219.634 98.08C220.36 98.08 220.93 98.448 221.346 99.184C221.762 99.92 221.97 100.901 221.97 102.128C221.97 103.355 221.762 104.341 221.346 105.088C220.93 105.824 220.36 106.192 219.634 106.192C219.293 106.192 218.968 106.08 218.658 105.856C218.349 105.632 218.098 105.312 217.906 104.896V108.944H216.77V104.912C216.589 105.307 216.344 105.621 216.034 105.856C215.725 106.08 215.394 106.192 215.042 106.192C214.317 106.192 213.746 105.824 213.33 105.088C212.914 104.352 212.706 103.371 212.706 102.144C212.706 100.917 212.914 99.936 213.33 99.2ZM215.362 99.104C214.872 99.104 214.498 99.3867 214.242 99.952C213.997 100.517 213.874 101.248 213.874 102.144C213.874 103.019 214.002 103.744 214.258 104.32C214.525 104.885 214.898 105.168 215.378 105.168C215.656 105.168 215.922 105.045 216.178 104.8C216.445 104.555 216.642 104.256 216.77 103.904V100.368C216.642 100.016 216.445 99.7173 216.178 99.472C215.922 99.2267 215.65 99.104 215.362 99.104ZM219.298 105.168C219.778 105.168 220.146 104.885 220.402 104.32C220.669 103.744 220.802 103.013 220.802 102.128C220.802 101.243 220.674 100.517 220.418 99.952C220.173 99.3867 219.805 99.104 219.314 99.104C219.026 99.104 218.749 99.2267 218.482 99.472C218.226 99.7067 218.034 100 217.906 100.352V103.888C218.034 104.24 218.226 104.544 218.482 104.8C218.749 105.045 219.021 105.168 219.298 105.168ZM224.19 99.2C224.606 98.4533 225.176 98.08 225.902 98.08C226.627 98.08 227.203 98.512 227.63 99.376V95.328H228.766V99.36C228.958 98.9653 229.208 98.656 229.518 98.432C229.827 98.1973 230.152 98.08 230.494 98.08C231.219 98.08 231.79 98.448 232.206 99.184C232.622 99.92 232.83 100.901 232.83 102.128C232.83 103.355 232.622 104.341 232.206 105.088C231.79 105.824 231.219 106.192 230.494 106.192C230.152 106.192 229.827 106.08 229.518 105.856C229.208 105.632 228.958 105.312 228.766 104.896V108.944H227.63V104.912C227.448 105.307 227.203 105.621 226.894 105.856C226.584 106.08 226.254 106.192 225.902 106.192C225.176 106.192 224.606 105.824 224.19 105.088C223.774 104.352 223.566 103.371 223.566 102.144C223.566 100.917 223.774 99.936 224.19 99.2ZM226.222 99.104C225.731 99.104 225.358 99.3867 225.102 99.952C224.856 100.517 224.734 101.248 224.734 102.144C224.734 103.019 224.862 103.744 225.118 104.32C225.384 104.885 225.758 105.168 226.238 105.168C226.515 105.168 226.782 105.045 227.038 104.8C227.304 104.555 227.502 104.256 227.63 103.904V100.368C227.502 100.016 227.304 99.7173 227.038 99.472C226.782 99.2267 226.51 99.104 226.222 99.104ZM230.158 105.168C230.638 105.168 231.006 104.885 231.262 104.32C231.528 103.744 231.662 103.013 231.662 102.128C231.662 101.243 231.534 100.517 231.278 99.952C231.032 99.3867 230.664 99.104 230.174 99.104C229.886 99.104 229.608 99.2267 229.342 99.472C229.086 99.7067 228.894 100 228.766 100.352V103.888C228.894 104.24 229.086 104.544 229.342 104.8C229.608 105.045 229.88 105.168 230.158 105.168ZM237.609 106.192C236.596 106.192 235.79 105.819 235.193 105.072C234.596 104.315 234.297 103.333 234.297 102.128C234.297 100.976 234.58 100.016 235.145 99.248C235.721 98.4693 236.484 98.08 237.433 98.08C238.414 98.08 239.166 98.464 239.689 99.232C240.222 100 240.489 100.976 240.489 102.16V102.512H235.481C235.502 103.312 235.71 103.968 236.105 104.48C236.5 104.981 237.033 105.232 237.705 105.232C238.43 105.232 239.044 104.917 239.545 104.288L240.153 104.96C239.481 105.781 238.633 106.192 237.609 106.192ZM239.353 101.664C239.342 100.971 239.177 100.363 238.857 99.84C238.537 99.3067 238.057 99.04 237.417 99.04C236.798 99.04 236.324 99.312 235.993 99.856C235.673 100.389 235.502 100.992 235.481 101.664H239.353ZM247.877 106H246.517L244.389 102.512L243.301 103.904V106H242.165V98.272H243.301V102.464L246.517 98.272H247.877L245.173 101.744L247.877 106ZM251.421 106H250.269V99.28H248.493V98.272H253.197V99.28H251.421V106ZM255.755 106H254.618V98.272H255.755V103.888L258.763 98.272H259.947V106H258.811V100.256L255.755 106ZM265.32 106H262.056V98.272H265.256C265.928 98.272 266.451 98.4533 266.824 98.816C267.208 99.168 267.4 99.648 267.4 100.256C267.4 100.704 267.288 101.077 267.064 101.376C266.851 101.675 266.557 101.883 266.184 102C266.579 102.107 266.904 102.341 267.16 102.704C267.416 103.056 267.544 103.456 267.544 103.904C267.544 104.544 267.352 105.056 266.968 105.44C266.595 105.813 266.045 106 265.32 106ZM265.112 105.024C265.944 105.024 266.36 104.613 266.36 103.792C266.36 103.429 266.253 103.125 266.04 102.88C265.827 102.635 265.517 102.512 265.112 102.512H263.192V105.024H265.112ZM265.048 101.552C265.432 101.552 265.72 101.445 265.912 101.232C266.115 101.019 266.216 100.741 266.216 100.4C266.216 100.059 266.12 99.7813 265.928 99.568C265.736 99.344 265.443 99.232 265.048 99.232H263.192V101.552H265.048ZM270.614 106H269.478V98.272H270.614V101.488H273.67V98.272H274.806V106H273.67V102.496H270.614V106ZM279.667 106.192C278.686 106.192 277.918 105.803 277.363 105.024C276.809 104.245 276.531 103.28 276.531 102.128C276.531 100.987 276.809 100.027 277.363 99.248C277.918 98.4693 278.686 98.08 279.667 98.08C280.659 98.08 281.433 98.4693 281.987 99.248C282.542 100.016 282.819 100.976 282.819 102.128C282.819 103.28 282.542 104.245 281.987 105.024C281.433 105.803 280.659 106.192 279.667 106.192ZM279.667 105.168C280.307 105.168 280.793 104.875 281.123 104.288C281.454 103.701 281.619 102.981 281.619 102.128C281.619 101.285 281.454 100.571 281.123 99.984C280.793 99.3973 280.307 99.104 279.667 99.104C279.038 99.104 278.558 99.3973 278.227 99.984C277.897 100.571 277.731 101.285 277.731 102.128C277.731 102.981 277.897 103.701 278.227 104.288C278.558 104.875 279.038 105.168 279.667 105.168ZM39.6451 127H38.5091V119.272H39.6451V124.888L42.6531 119.272H43.8371V127H42.7011V121.256L39.6451 127ZM52.1361 126.168C52.7761 126.168 53.2561 125.875 53.5761 125.288C53.9068 124.701 54.0721 123.976 54.0721 123.112C54.0721 122.269 53.9068 121.56 53.5761 120.984C53.2455 120.397 52.7655 120.104 52.1361 120.104C51.5068 120.104 51.0268 120.397 50.6961 120.984C50.3655 121.56 50.2001 122.269 50.2001 123.112C50.2001 123.976 50.3655 124.701 50.6961 125.288C51.0268 125.875 51.5068 126.168 52.1361 126.168ZM54.4401 126.024C53.8961 126.803 53.1281 127.192 52.1361 127.192C51.1441 127.192 50.3708 126.787 49.8161 125.976C49.2721 125.165 49.0001 124.099 49.0001 122.776C49.0001 120.845 49.2401 119.475 49.7201 118.664C50.2001 117.853 51.0641 117.336 52.3121 117.112C52.9095 117.005 53.3255 116.893 53.5601 116.776C53.7948 116.648 53.9121 116.499 53.9121 116.328H55.0481C55.0481 116.616 54.9788 116.867 54.8401 117.08C54.7015 117.283 54.4988 117.453 54.2321 117.592C53.9655 117.72 53.7095 117.821 53.4641 117.896C53.2188 117.96 52.9255 118.024 52.5841 118.088C51.7201 118.248 51.0961 118.525 50.7121 118.92C50.3388 119.304 50.1041 119.848 50.0081 120.552C50.2215 120.136 50.5255 119.789 50.9201 119.512C51.3148 119.224 51.7788 119.08 52.3121 119.08C53.2295 119.08 53.9495 119.469 54.4721 120.248C55.0055 121.016 55.2721 121.971 55.2721 123.112C55.2721 124.264 54.9948 125.235 54.4401 126.024ZM59.9996 127.192C58.9863 127.192 58.181 126.819 57.5836 126.072C56.9863 125.315 56.6876 124.333 56.6876 123.128C56.6876 121.976 56.9703 121.016 57.5356 120.248C58.1116 119.469 58.8743 119.08 59.8236 119.08C60.805 119.08 61.557 119.464 62.0796 120.232C62.613 121 62.8796 121.976 62.8796 123.16V123.512H57.8716C57.893 124.312 58.101 124.968 58.4956 125.48C58.8903 125.981 59.4236 126.232 60.0956 126.232C60.821 126.232 61.4343 125.917 61.9356 125.288L62.5436 125.96C61.8716 126.781 61.0236 127.192 59.9996 127.192ZM61.7436 122.664C61.733 121.971 61.5676 121.363 61.2476 120.84C60.9276 120.307 60.4476 120.04 59.8076 120.04C59.189 120.04 58.7143 120.312 58.3836 120.856C58.0636 121.389 57.893 121.992 57.8716 122.664H61.7436ZM66.78 127.192C65.532 127.192 64.5667 126.771 63.884 125.928L64.508 125.24C65.0627 125.912 65.8147 126.248 66.764 126.248C67.308 126.248 67.7453 126.12 68.076 125.864C68.4067 125.608 68.572 125.272 68.572 124.856C68.572 123.992 67.9427 123.56 66.684 123.56H65.244V122.616H66.668C67.2013 122.616 67.628 122.499 67.948 122.264C68.2787 122.029 68.444 121.704 68.444 121.288C68.444 120.904 68.2787 120.6 67.948 120.376C67.6173 120.141 67.1853 120.024 66.652 120.024C65.788 120.024 65.116 120.349 64.636 121L63.996 120.328C64.636 119.496 65.5107 119.08 66.62 119.08C67.516 119.08 68.236 119.267 68.78 119.64C69.3347 120.013 69.612 120.52 69.612 121.16C69.612 121.629 69.436 122.04 69.084 122.392C68.7427 122.744 68.3373 122.968 67.868 123.064C68.3587 123.117 68.7907 123.309 69.164 123.64C69.548 123.971 69.74 124.403 69.74 124.936C69.74 125.587 69.4787 126.125 68.956 126.552C68.4333 126.979 67.708 127.192 66.78 127.192ZM74.2143 127.192C73.2329 127.192 72.4649 126.803 71.9103 126.024C71.3556 125.245 71.0783 124.28 71.0783 123.128C71.0783 121.987 71.3556 121.027 71.9103 120.248C72.4649 119.469 73.2329 119.08 74.2143 119.08C75.2063 119.08 75.9796 119.469 76.5343 120.248C77.0889 121.016 77.3663 121.976 77.3663 123.128C77.3663 124.28 77.0889 125.245 76.5343 126.024C75.9796 126.803 75.2063 127.192 74.2143 127.192ZM74.2143 126.168C74.8543 126.168 75.3396 125.875 75.6703 125.288C76.0009 124.701 76.1663 123.981 76.1663 123.128C76.1663 122.285 76.0009 121.571 75.6703 120.984C75.3396 120.397 74.8543 120.104 74.2143 120.104C73.5849 120.104 73.1049 120.397 72.7743 120.984C72.4436 121.571 72.2783 122.285 72.2783 123.128C72.2783 123.981 72.4436 124.701 72.7743 125.288C73.1049 125.875 73.5849 126.168 74.2143 126.168ZM84.4153 127H83.2793V120.28H80.2233V127H79.0872V119.272H84.4153V127ZM91.6448 127H90.4928V126.168C90.0128 126.851 89.3354 127.192 88.4608 127.192C87.8101 127.192 87.2554 126.957 86.7968 126.488C86.3488 126.019 86.1248 125.395 86.1248 124.616C86.1248 123.837 86.3488 123.219 86.7968 122.76C87.2448 122.301 87.7994 122.072 88.4608 122.072C89.3568 122.072 90.0341 122.403 90.4928 123.064V121.72C90.4928 121.197 90.3541 120.792 90.0768 120.504C89.7994 120.216 89.4101 120.072 88.9088 120.072C88.1728 120.072 87.5274 120.387 86.9728 121.016L86.4608 120.2C87.1754 119.453 88.0501 119.08 89.0848 119.08C89.8848 119.08 90.5088 119.288 90.9568 119.704C91.4154 120.109 91.6448 120.739 91.6448 121.592V127ZM88.8288 126.36C89.5754 126.36 90.1301 126.035 90.4928 125.384V123.912C90.1408 123.251 89.5861 122.92 88.8288 122.92C88.3594 122.92 87.9861 123.085 87.7088 123.416C87.4314 123.736 87.2928 124.141 87.2928 124.632C87.2928 125.123 87.4314 125.533 87.7088 125.864C87.9861 126.195 88.3594 126.36 88.8288 126.36ZM96.5595 127.192C95.5888 127.192 94.8102 126.808 94.2235 126.04C93.6475 125.272 93.3595 124.301 93.3595 123.128C93.3595 121.955 93.6475 120.989 94.2235 120.232C94.8102 119.464 95.5888 119.08 96.5595 119.08C97.4768 119.08 98.2128 119.421 98.7675 120.104L98.1435 120.888C97.7595 120.365 97.2635 120.104 96.6555 120.104C95.9942 120.104 95.4768 120.392 95.1035 120.968C94.7408 121.544 94.5595 122.264 94.5595 123.128C94.5595 123.992 94.7408 124.717 95.1035 125.304C95.4768 125.88 95.9942 126.168 96.6555 126.168C97.2528 126.168 97.7488 125.907 98.1435 125.384L98.7675 126.168C98.2235 126.851 97.4875 127.192 96.5595 127.192ZM101.38 127H100.243V119.272H101.38V122.488H104.436V119.272H105.572V127H104.436V123.496H101.38V127ZM110.433 127.192C109.452 127.192 108.684 126.803 108.129 126.024C107.574 125.245 107.297 124.28 107.297 123.128C107.297 121.987 107.574 121.027 108.129 120.248C108.684 119.469 109.452 119.08 110.433 119.08C111.425 119.08 112.198 119.469 112.753 120.248C113.308 121.016 113.585 121.976 113.585 123.128C113.585 124.28 113.308 125.245 112.753 126.024C112.198 126.803 111.425 127.192 110.433 127.192ZM110.433 126.168C111.073 126.168 111.558 125.875 111.889 125.288C112.22 124.701 112.385 123.981 112.385 123.128C112.385 122.285 112.22 121.571 111.889 120.984C111.558 120.397 111.073 120.104 110.433 120.104C109.804 120.104 109.324 120.397 108.993 120.984C108.662 121.571 108.497 122.285 108.497 123.128C108.497 123.981 108.662 124.701 108.993 125.288C109.324 125.875 109.804 126.168 110.433 126.168ZM122.008 127H118.743V119.272H121.944C122.616 119.272 123.138 119.453 123.512 119.816C123.896 120.168 124.088 120.648 124.088 121.256C124.088 121.704 123.976 122.077 123.752 122.376C123.538 122.675 123.245 122.883 122.872 123C123.266 123.107 123.592 123.341 123.848 123.704C124.104 124.056 124.232 124.456 124.232 124.904C124.232 125.544 124.04 126.056 123.656 126.44C123.282 126.813 122.733 127 122.008 127ZM121.799 126.024C122.632 126.024 123.048 125.613 123.048 124.792C123.048 124.429 122.941 124.125 122.728 123.88C122.514 123.635 122.205 123.512 121.799 123.512H119.88V126.024H121.799ZM121.736 122.552C122.12 122.552 122.408 122.445 122.6 122.232C122.802 122.019 122.904 121.741 122.904 121.4C122.904 121.059 122.808 120.781 122.616 120.568C122.424 120.344 122.13 120.232 121.736 120.232H119.88V122.552H121.736ZM129.203 130.024L129.379 129C129.518 129.075 129.688 129.112 129.891 129.112C130.126 129.112 130.307 129.053 130.435 128.936C130.574 128.829 130.696 128.632 130.803 128.344L131.219 127.16L128.643 119.272H129.891L131.811 125.608L133.747 119.272H134.979L131.891 128.632C131.71 129.176 131.459 129.56 131.139 129.784C130.83 130.019 130.44 130.136 129.971 130.136C129.662 130.136 129.406 130.099 129.203 130.024ZM138.95 127.192C137.979 127.192 137.201 126.808 136.614 126.04C136.038 125.272 135.75 124.301 135.75 123.128C135.75 121.955 136.038 120.989 136.614 120.232C137.201 119.464 137.979 119.08 138.95 119.08C139.867 119.08 140.603 119.421 141.158 120.104L140.534 120.888C140.15 120.365 139.654 120.104 139.046 120.104C138.385 120.104 137.867 120.392 137.494 120.968C137.131 121.544 136.95 122.264 136.95 123.128C136.95 123.992 137.131 124.717 137.494 125.304C137.867 125.88 138.385 126.168 139.046 126.168C139.643 126.168 140.139 125.907 140.534 125.384L141.158 126.168C140.614 126.851 139.878 127.192 138.95 127.192ZM141.866 127.192V126.2C142.229 126.2 142.511 125.992 142.714 125.576C142.927 125.149 143.087 124.381 143.194 123.272L143.578 119.272H147.962V127H146.826V120.28H144.634L144.346 123.384C144.218 124.792 143.951 125.779 143.546 126.344C143.141 126.909 142.581 127.192 141.866 127.192ZM152.824 127.192C151.842 127.192 151.074 126.803 150.52 126.024C149.965 125.245 149.688 124.28 149.688 123.128C149.688 121.987 149.965 121.027 150.52 120.248C151.074 119.469 151.842 119.08 152.824 119.08C153.816 119.08 154.589 119.469 155.144 120.248C155.698 121.016 155.976 121.976 155.976 123.128C155.976 124.28 155.698 125.245 155.144 126.024C154.589 126.803 153.816 127.192 152.824 127.192ZM152.824 126.168C153.464 126.168 153.949 125.875 154.28 125.288C154.61 124.701 154.776 123.981 154.776 123.128C154.776 122.285 154.61 121.571 154.28 120.984C153.949 120.397 153.464 120.104 152.824 120.104C152.194 120.104 151.714 120.397 151.384 120.984C151.053 121.571 150.888 122.285 150.888 123.128C150.888 123.981 151.053 124.701 151.384 125.288C151.714 125.875 152.194 126.168 152.824 126.168ZM160.961 127H157.697V119.272H160.897C161.569 119.272 162.091 119.453 162.465 119.816C162.849 120.168 163.041 120.648 163.041 121.256C163.041 121.704 162.929 122.077 162.705 122.376C162.491 122.675 162.198 122.883 161.825 123C162.219 123.107 162.545 123.341 162.801 123.704C163.057 124.056 163.185 124.456 163.185 124.904C163.185 125.544 162.993 126.056 162.609 126.44C162.235 126.813 161.686 127 160.961 127ZM160.753 126.024C161.585 126.024 162.001 125.613 162.001 124.792C162.001 124.429 161.894 124.125 161.681 123.88C161.467 123.635 161.158 123.512 160.753 123.512H158.833V126.024H160.753ZM160.689 122.552C161.073 122.552 161.361 122.445 161.553 122.232C161.755 122.019 161.857 121.741 161.857 121.4C161.857 121.059 161.761 120.781 161.569 120.568C161.377 120.344 161.083 120.232 160.689 120.232H158.833V122.552H160.689ZM166.255 127H165.118V119.272H166.255V124.888L169.263 119.272H170.447V127H169.311V121.256L166.255 127ZM173.612 127H172.3L174.012 123.848C173.543 123.752 173.153 123.512 172.844 123.128C172.535 122.733 172.38 122.232 172.38 121.624C172.38 120.941 172.588 120.381 173.004 119.944C173.431 119.496 174.017 119.272 174.764 119.272H177.852V127H176.7V123.976H175.164L173.612 127ZM174.876 123H176.7V120.248H174.876C174.46 120.248 174.135 120.376 173.9 120.632C173.676 120.877 173.564 121.208 173.564 121.624C173.564 122.04 173.676 122.376 173.9 122.632C174.124 122.877 174.449 123 174.876 123ZM185.21 127H183.93L182.154 123.896L180.378 127H179.098L181.45 123.064L179.226 119.272H180.506L182.154 122.216L183.802 119.272H185.082L182.858 123.064L185.21 127ZM194.972 128.968V127H189.9V119.272H191.036V125.992H194.092V119.272H195.228V125.992H196.108V128.968H194.972ZM198.692 127H197.556V119.272H198.692V124.888L201.7 119.272H202.884V127H201.748V121.256L198.692 127ZM205.362 120.2C205.778 119.453 206.348 119.08 207.074 119.08C207.799 119.08 208.375 119.512 208.802 120.376V116.328H209.938V120.36C210.13 119.965 210.38 119.656 210.69 119.432C210.999 119.197 211.324 119.08 211.666 119.08C212.391 119.08 212.962 119.448 213.378 120.184C213.794 120.92 214.002 121.901 214.002 123.128C214.002 124.355 213.794 125.341 213.378 126.088C212.962 126.824 212.391 127.192 211.666 127.192C211.324 127.192 210.999 127.08 210.69 126.856C210.38 126.632 210.13 126.312 209.938 125.896V129.944H208.802V125.912C208.62 126.307 208.375 126.621 208.066 126.856C207.756 127.08 207.426 127.192 207.074 127.192C206.348 127.192 205.778 126.824 205.362 126.088C204.946 125.352 204.738 124.371 204.738 123.144C204.738 121.917 204.946 120.936 205.362 120.2ZM207.394 120.104C206.903 120.104 206.53 120.387 206.274 120.952C206.028 121.517 205.906 122.248 205.906 123.144C205.906 124.019 206.034 124.744 206.289 125.32C206.556 125.885 206.93 126.168 207.41 126.168C207.687 126.168 207.954 126.045 208.21 125.8C208.476 125.555 208.674 125.256 208.802 124.904V121.368C208.674 121.016 208.476 120.717 208.21 120.472C207.954 120.227 207.682 120.104 207.394 120.104ZM211.33 126.168C211.81 126.168 212.178 125.885 212.434 125.32C212.7 124.744 212.834 124.013 212.834 123.128C212.834 122.243 212.706 121.517 212.45 120.952C212.204 120.387 211.836 120.104 211.346 120.104C211.058 120.104 210.78 120.227 210.514 120.472C210.258 120.707 210.066 121 209.938 121.352V124.888C210.066 125.24 210.258 125.544 210.514 125.8C210.78 126.045 211.052 126.168 211.33 126.168ZM221.053 126.088C220.562 126.824 219.885 127.192 219.021 127.192C218.157 127.192 217.48 126.755 216.989 125.88V129.944H215.853V119.272H216.989V120.376C217.213 119.981 217.506 119.667 217.869 119.432C218.232 119.197 218.616 119.08 219.021 119.08C219.885 119.08 220.562 119.448 221.053 120.184C221.544 120.92 221.789 121.901 221.789 123.128C221.789 124.355 221.544 125.341 221.053 126.088ZM218.733 126.168C219.341 126.168 219.8 125.885 220.109 125.32C220.429 124.744 220.589 124.013 220.589 123.128C220.589 122.243 220.429 121.517 220.109 120.952C219.8 120.387 219.341 120.104 218.733 120.104C218.381 120.104 218.04 120.227 217.709 120.472C217.389 120.707 217.149 121 216.989 121.352V124.888C217.149 125.24 217.389 125.544 217.709 125.8C218.04 126.045 218.381 126.168 218.733 126.168ZM226.246 127.192C225.264 127.192 224.496 126.803 223.942 126.024C223.387 125.245 223.11 124.28 223.11 123.128C223.11 121.987 223.387 121.027 223.942 120.248C224.496 119.469 225.264 119.08 226.246 119.08C227.238 119.08 228.011 119.469 228.566 120.248C229.12 121.016 229.398 121.976 229.398 123.128C229.398 124.28 229.12 125.245 228.566 126.024C228.011 126.803 227.238 127.192 226.246 127.192ZM226.246 126.168C226.886 126.168 227.371 125.875 227.702 125.288C228.032 124.701 228.198 123.981 228.198 123.128C228.198 122.285 228.032 121.571 227.702 120.984C227.371 120.397 226.886 120.104 226.246 120.104C225.616 120.104 225.136 120.397 224.806 120.984C224.475 121.571 224.31 122.285 224.31 123.128C224.31 123.981 224.475 124.701 224.806 125.288C225.136 125.875 225.616 126.168 226.246 126.168ZM234.383 127H231.118V119.272H234.319C234.991 119.272 235.513 119.453 235.887 119.816C236.271 120.168 236.463 120.648 236.463 121.256C236.463 121.704 236.351 122.077 236.127 122.376C235.913 122.675 235.62 122.883 235.247 123C235.641 123.107 235.967 123.341 236.223 123.704C236.479 124.056 236.607 124.456 236.607 124.904C236.607 125.544 236.415 126.056 236.031 126.44C235.657 126.813 235.108 127 234.383 127ZM234.174 126.024C235.007 126.024 235.423 125.613 235.423 124.792C235.423 124.429 235.316 124.125 235.103 123.88C234.889 123.635 234.58 123.512 234.174 123.512H232.255V126.024H234.174ZM234.111 122.552C234.495 122.552 234.783 122.445 234.975 122.232C235.177 122.019 235.279 121.741 235.279 121.4C235.279 121.059 235.183 120.781 234.991 120.568C234.799 120.344 234.505 120.232 234.111 120.232H232.255V122.552H234.111ZM241.292 127.192C240.311 127.192 239.543 126.803 238.988 126.024C238.434 125.245 238.156 124.28 238.156 123.128C238.156 121.987 238.434 121.027 238.988 120.248C239.543 119.469 240.311 119.08 241.292 119.08C242.284 119.08 243.058 119.469 243.612 120.248C244.167 121.016 244.444 121.976 244.444 123.128C244.444 124.28 244.167 125.245 243.612 126.024C243.058 126.803 242.284 127.192 241.292 127.192ZM241.292 126.168C241.932 126.168 242.418 125.875 242.748 125.288C243.079 124.701 243.244 123.981 243.244 123.128C243.244 122.285 243.079 121.571 242.748 120.984C242.418 120.397 241.932 120.104 241.292 120.104C240.663 120.104 240.183 120.397 239.852 120.984C239.522 121.571 239.356 122.285 239.356 123.128C239.356 123.981 239.522 124.701 239.852 125.288C240.183 125.875 240.663 126.168 241.292 126.168ZM247.301 127H246.165V119.272H247.301V124.888L250.309 119.272H251.493V127H250.357V121.256L247.301 127ZM251.189 117.096C250.592 117.885 249.808 118.28 248.837 118.28C247.856 118.28 247.067 117.885 246.469 117.096L247.061 116.616C247.477 117.224 248.069 117.528 248.837 117.528C249.595 117.528 250.181 117.224 250.597 116.616L251.189 117.096ZM112.304 148.192C111.376 148.192 110.64 147.851 110.096 147.168L110.704 146.432C111.109 146.965 111.61 147.232 112.208 147.232C112.805 147.232 113.285 146.987 113.648 146.496C114.01 146.005 114.218 145.371 114.272 144.592H111.168V143.584H114.272C114.208 142.837 113.994 142.229 113.632 141.76C113.269 141.28 112.794 141.04 112.208 141.04C111.61 141.04 111.109 141.307 110.704 141.84L110.096 141.104C110.65 140.421 111.386 140.08 112.304 140.08C113.285 140.08 114.064 140.464 114.64 141.232C115.216 141.989 115.504 142.955 115.504 144.128C115.504 145.301 115.216 146.272 114.64 147.04C114.064 147.808 113.285 148.192 112.304 148.192ZM122.948 148H121.588L119.46 144.512L118.372 145.904V148H117.236V140.272H118.372V144.464L121.588 140.272H122.948L120.244 143.744L122.948 148ZM126.941 148.192C125.959 148.192 125.191 147.803 124.637 147.024C124.082 146.245 123.805 145.28 123.805 144.128C123.805 142.987 124.082 142.027 124.637 141.248C125.191 140.469 125.959 140.08 126.941 140.08C127.933 140.08 128.706 140.469 129.261 141.248C129.815 142.016 130.093 142.976 130.093 144.128C130.093 145.28 129.815 146.245 129.261 147.024C128.706 147.803 127.933 148.192 126.941 148.192ZM126.941 147.168C127.581 147.168 128.066 146.875 128.397 146.288C128.727 145.701 128.893 144.981 128.893 144.128C128.893 143.285 128.727 142.571 128.397 141.984C128.066 141.397 127.581 141.104 126.941 141.104C126.311 141.104 125.831 141.397 125.501 141.984C125.17 142.571 125.005 143.285 125.005 144.128C125.005 144.981 125.17 145.701 125.501 146.288C125.831 146.875 126.311 147.168 126.941 147.168ZM132.95 148H131.814V140.272H132.95V143.488H136.006V140.272H137.142V148H136.006V144.496H132.95V148ZM142.003 148.192C141.022 148.192 140.254 147.803 139.699 147.024C139.145 146.245 138.867 145.28 138.867 144.128C138.867 142.987 139.145 142.027 139.699 141.248C140.254 140.469 141.022 140.08 142.003 140.08C142.995 140.08 143.769 140.469 144.323 141.248C144.878 142.016 145.155 142.976 145.155 144.128C145.155 145.28 144.878 146.245 144.323 147.024C143.769 147.803 142.995 148.192 142.003 148.192ZM142.003 147.168C142.643 147.168 143.129 146.875 143.459 146.288C143.79 145.701 143.955 144.981 143.955 144.128C143.955 143.285 143.79 142.571 143.459 141.984C143.129 141.397 142.643 141.104 142.003 141.104C141.374 141.104 140.894 141.397 140.563 141.984C140.233 142.571 140.067 143.285 140.067 144.128C140.067 144.981 140.233 145.701 140.563 146.288C140.894 146.875 141.374 147.168 142.003 147.168ZM153.756 148H152.62V142.176L150.556 148H150.076L148.012 142.176V148H146.876V140.272H148.38L150.316 145.712L152.252 140.272H153.756V148ZM156.981 148H155.845V140.272H156.981V145.888L159.989 140.272H161.173V148H160.037V142.256L156.981 148ZM168.995 148H167.635L165.507 144.512L164.419 145.904V148H163.283V140.272H164.419V144.464L167.635 140.272H168.995L166.291 143.744L168.995 148ZM171.434 148H170.298V140.272H171.434V145.888L174.442 140.272H175.626V148H174.49V142.256L171.434 148ZM179.112 147.904C178.941 148.075 178.738 148.16 178.504 148.16C178.269 148.16 178.066 148.075 177.896 147.904C177.736 147.733 177.656 147.531 177.656 147.296C177.656 147.072 177.736 146.875 177.896 146.704C178.066 146.533 178.269 146.448 178.504 146.448C178.738 146.448 178.941 146.533 179.112 146.704C179.282 146.875 179.368 147.072 179.368 147.296C179.368 147.531 179.282 147.733 179.112 147.904Z" fill="white"/>
</g>
<defs>
<clipPath id="clip0_8370_2244">
<rect width="290" height="186" fill="white"/>
</clipPath>
</defs>
</svg>
